<svg width="201" height="167" viewBox="0 0 201 167" fill="none" xmlns="http://www.w3.org/2000/svg">
<path d="M28.4253 43.7586C31.6506 44.882 34.7316 44.7319 37.6683 43.3084C40.6051 41.8849 42.6352 39.5605 43.7586 36.3353C44.882 33.1101 44.7319 30.0291 43.3084 27.0923C41.8849 24.1555 39.5605 22.1255 36.3353 21.0021C33.1101 19.8787 30.0291 20.0287 27.0923 21.4522C24.1555 22.8758 22.1254 25.2001 21.002 28.4253C19.8786 31.6506 20.0287 34.7316 21.4522 37.6683C22.8757 40.6051 25.2001 42.6352 28.4253 43.7586Z" fill="#A64AC9"/>
<path fill-rule="evenodd" clip-rule="evenodd" d="M71.1925 69.183L48.1278 52.2748C44.7982 55.0521 41.0706 56.8245 36.945 57.5922C32.8193 58.3599 28.5095 57.9611 24.0154 56.3957C17.3444 54.0721 12.4874 49.7622 9.44425 43.466C6.40112 37.1698 6.04136 30.6863 8.36496 24.0154C10.6886 17.3444 14.9984 12.4874 21.2946 9.44426C27.5908 6.40113 34.0743 6.04136 40.7453 8.36496C47.4162 10.6886 52.2732 14.9985 55.3164 21.2946C58.3595 27.5908 58.7193 34.0743 56.3957 40.7453L56.1022 41.5879L78.721 59.3877L71.1925 69.183ZM37.6683 43.3084C34.7316 44.7319 31.6506 44.882 28.4253 43.7586C25.2001 42.6352 22.8757 40.6051 21.4522 37.6683C20.0287 34.7316 19.8786 31.6506 21.002 28.4253C22.1254 25.2001 24.1555 22.8758 27.0923 21.4522C30.0291 20.0287 33.1101 19.8787 36.3353 21.0021C39.5605 22.1255 41.8849 24.1555 43.3084 27.0923C44.7319 30.0291 44.882 33.1101 43.7586 36.3353C42.6352 39.5605 40.6051 41.8849 37.6683 43.3084Z" fill="#58FFE1"/>
<path d="M172.864 123.784C169.58 122.845 166.512 123.17 163.661 124.759C160.81 126.347 158.915 128.783 157.977 132.067C157.039 135.351 157.364 138.418 158.952 141.269C160.54 144.12 162.977 146.015 166.26 146.953C169.544 147.891 172.612 147.566 175.463 145.978C178.314 144.39 180.209 141.954 181.147 138.67C182.085 135.386 181.76 132.319 180.172 129.468C178.583 126.616 176.147 124.722 172.864 123.784Z" fill="#A64AC9"/>
<path fill-rule="evenodd" clip-rule="evenodd" d="M128.72 100.832L152.709 116.401C155.875 113.439 159.496 111.458 163.571 110.457C167.646 109.456 171.972 109.609 176.548 110.916C183.34 112.857 188.434 116.883 191.831 122.996C195.227 129.109 195.955 135.562 194.014 142.354C192.074 149.147 188.047 154.241 181.934 157.637C175.821 161.033 169.368 161.761 162.576 159.821C155.784 157.88 150.69 153.853 147.293 147.74C143.897 141.627 143.169 135.175 145.11 128.383L145.355 127.525L121.761 111.04L128.72 100.832ZM163.661 124.759C166.512 123.17 169.58 122.845 172.864 123.784C176.147 124.722 178.583 126.616 180.172 129.468C181.76 132.319 182.085 135.386 181.147 138.67C180.209 141.954 178.314 144.39 175.463 145.978C172.612 147.566 169.544 147.891 166.26 146.953C162.977 146.015 160.54 144.12 158.952 141.269C157.364 138.418 157.039 135.351 157.977 132.067C158.915 128.783 160.81 126.347 163.661 124.759Z" fill="#58FFE1"/>
<rect x="75.1736" y="57.9496" width="51.7477" height="51.7477" rx="25.8738" fill="white" stroke="#58FFE1" stroke-width="16"/>
</svg>
