<svg width="190" height="180" viewBox="0 0 190 180" fill="none" xmlns="http://www.w3.org/2000/svg">
<path d="M41.1236 153.516C42.853 150.942 43.4309 148.202 42.8572 145.295C42.2834 142.388 40.7097 140.07 38.136 138.34C35.5623 136.611 32.822 136.033 29.9149 136.607C27.0079 137.18 24.6897 138.754 22.9602 141.328C21.2307 143.901 20.6529 146.642 21.2266 149.549C21.8003 152.456 23.3741 154.774 25.9478 156.504C28.5215 158.233 31.2618 158.811 34.1689 158.237C37.0759 157.663 39.3941 156.09 41.1236 153.516Z" fill="#A64AC9"/>
<path fill-rule="evenodd" clip-rule="evenodd" d="M73.3025 121.813L53.1408 138.174C54.813 141.738 55.511 145.42 55.2349 149.22C54.9588 153.02 53.6159 156.713 51.206 160.3C47.6288 165.623 42.7251 168.896 36.4947 170.118C30.2643 171.341 24.4875 170.163 19.1641 166.586C13.8407 163.009 10.5679 158.105 9.34555 151.875C8.12322 145.644 9.30063 139.867 12.8778 134.544C16.455 129.221 21.3587 125.948 27.5891 124.725C33.8195 123.503 39.5963 124.681 44.9197 128.258L45.5921 128.71L66.4341 112.945L73.3025 121.813ZM42.8572 145.295C43.4309 148.202 42.853 150.942 41.1236 153.516C39.3941 156.09 37.0759 157.663 34.1689 158.237C31.2618 158.811 28.5215 158.233 25.9478 156.504C23.3741 154.774 21.8003 152.456 21.2266 149.549C20.6529 146.642 21.2307 143.901 22.9602 141.328C24.6897 138.754 27.0079 137.18 29.9149 136.607C32.822 136.033 35.5623 136.611 38.136 138.34C40.7097 140.07 42.2834 142.388 42.8572 145.295Z" fill="#58FFE1"/>
<path d="M163.825 133.387C160.827 132.598 158.048 132.951 155.49 134.446C152.932 135.942 151.258 138.189 150.469 141.187C149.679 144.186 150.032 146.964 151.528 149.522C153.023 152.08 155.27 153.754 158.269 154.544C161.268 155.333 164.046 154.98 166.604 153.485C169.162 151.989 170.836 149.742 171.625 146.744C172.415 143.745 172.062 140.967 170.566 138.409C169.071 135.851 166.824 134.177 163.825 133.387Z" fill="#A64AC9"/>
<path fill-rule="evenodd" clip-rule="evenodd" d="M123.321 113.388L145.391 127.067C148.209 124.319 151.458 122.452 155.138 121.466C158.819 120.48 162.748 120.537 166.926 121.638C173.129 123.271 177.829 126.83 181.027 132.314C184.225 137.799 185.008 143.643 183.375 149.845C181.742 156.047 178.183 160.747 172.698 163.946C167.213 167.144 161.37 167.927 155.168 166.293C148.966 164.66 144.265 161.101 141.067 155.617C137.869 150.132 137.086 144.288 138.719 138.086L138.925 137.303L117.197 122.785L123.321 113.388ZM155.49 134.446C158.048 132.951 160.827 132.598 163.825 133.387C166.824 134.177 169.071 135.851 170.566 138.409C172.062 140.967 172.415 143.745 171.625 146.744C170.836 149.742 169.162 151.989 166.604 153.485C164.046 154.98 161.268 155.333 158.269 154.544C155.27 153.754 153.023 152.08 151.528 149.522C150.032 146.964 149.679 144.186 150.469 141.187C151.258 138.189 152.932 135.942 155.49 134.446Z" fill="#58FFE1"/>
<path d="M85.6394 32.0655C86.5495 35.0297 88.3142 37.2043 90.9337 38.5894C93.5532 39.9744 96.345 40.2119 99.3093 39.3018C102.274 38.3918 104.448 36.627 105.833 34.0075C107.218 31.3881 107.456 28.5962 106.546 25.632C105.636 22.6677 103.871 20.4931 101.251 19.108C98.6319 17.723 95.84 17.4855 92.8758 18.3956C89.9115 19.3057 87.7369 21.0704 86.3518 23.6899C84.9668 26.3094 84.7293 29.1012 85.6394 32.0655Z" fill="#A64AC9"/>
<path fill-rule="evenodd" clip-rule="evenodd" d="M90.001 77.027L89.9886 51.0618C86.1673 50.1164 82.8676 48.3399 80.0896 45.7323C77.3116 43.1248 75.2885 39.7558 74.0204 35.6253C72.138 29.4942 72.6839 23.6239 75.658 18.0144C78.6321 12.4049 83.1848 8.65899 89.3159 6.7766C95.4471 4.89421 101.317 5.44008 106.927 8.41421C112.536 11.3883 116.282 15.941 118.165 22.0721C120.047 28.2033 119.501 34.0736 116.527 39.683C113.553 45.2925 109 49.0384 102.869 50.9208L102.095 51.1586L101.215 77.2763L90.001 77.027ZM90.9337 38.5894C88.3142 37.2043 86.5495 35.0297 85.6394 32.0655C84.7293 29.1012 84.9668 26.3094 86.3518 23.6899C87.7369 21.0704 89.9115 19.3057 92.8758 18.3956C95.84 17.4855 98.6319 17.723 101.251 19.108C103.871 20.4931 105.636 22.6677 106.546 25.632C107.456 28.5962 107.218 31.3881 105.833 34.0075C104.448 36.627 102.274 38.3918 99.3093 39.3018C96.345 40.2119 93.5532 39.9744 90.9337 38.5894Z" fill="#58FFE1"/>
<rect x="72.1165" y="80.4564" width="45.5098" height="45.5098" rx="22.7549" fill="white" stroke="#58FFE1" stroke-width="16"/>
</svg>
