<svg width="170" height="161" viewBox="0 0 170 161" fill="none" xmlns="http://www.w3.org/2000/svg">
<path d="M38.6254 135.678C39.8823 133.012 40.0329 130.353 39.0772 127.703C38.1216 125.053 36.3104 123.099 33.6436 121.842C30.9768 120.585 28.3183 120.435 25.6681 121.39C23.0179 122.346 21.0643 124.157 19.8074 126.824C18.5505 129.491 18.3999 132.149 19.3556 134.8C20.3112 137.45 22.1224 139.403 24.7892 140.66C27.456 141.917 30.1145 142.068 32.7647 141.112C35.4149 140.156 37.3685 138.345 38.6254 135.678Z" fill="#A64AC9"/>
<path fill-rule="evenodd" clip-rule="evenodd" d="M64.3299 101.271L47.7231 119.537C49.8053 122.647 50.9888 126.008 51.2736 129.619C51.5584 133.231 50.8251 136.894 49.0737 140.61C46.474 146.126 42.3336 149.905 36.6526 151.946C30.9717 153.987 25.3732 153.708 19.8573 151.108C14.3414 148.509 10.5628 144.368 8.52145 138.687C6.48013 133.006 6.75934 127.408 9.35909 121.892C11.9588 116.376 16.0992 112.598 21.7802 110.556C27.4611 108.515 33.0596 108.794 38.5755 111.394L39.2722 111.722L56.604 93.9196L64.3299 101.271ZM39.0772 127.703C40.0329 130.353 39.8823 133.012 38.6254 135.678C37.3685 138.345 35.4149 140.156 32.7647 141.112C30.1145 142.068 27.456 141.917 24.7892 140.66C22.1224 139.403 20.3112 137.45 19.3556 134.8C18.3999 132.149 18.5505 129.491 19.8074 126.824C21.0643 124.157 23.0179 122.346 25.6681 121.39C28.3183 120.435 30.9768 120.585 33.6436 121.842C36.3104 123.099 38.1216 125.053 39.0772 127.703Z" fill="#58FFE1"/>
<path d="M145.616 114.097C142.798 113.231 140.145 113.459 137.657 114.781C135.169 116.103 133.492 118.172 132.626 120.991C131.76 123.809 131.988 126.462 133.31 128.95C134.631 131.437 136.701 133.114 139.519 133.98C142.337 134.846 144.99 134.619 147.478 133.297C149.966 131.975 151.643 129.905 152.509 127.087C153.375 124.269 153.147 121.616 151.826 119.128C150.504 116.64 148.434 114.963 145.616 114.097Z" fill="#A64AC9"/>
<path fill-rule="evenodd" clip-rule="evenodd" d="M107.911 93.5314L128.348 107.38C131.131 104.878 134.29 103.23 137.824 102.436C141.359 101.642 145.089 101.848 149.016 103.055C154.845 104.846 159.173 108.409 161.999 113.743C164.825 119.077 165.343 124.659 163.551 130.487C161.76 136.316 158.197 140.644 152.863 143.47C147.529 146.296 141.948 146.814 136.119 145.023C130.29 143.231 125.962 139.669 123.136 134.334C120.31 129 119.792 123.419 121.584 117.59L121.81 116.854L101.729 102.222L107.911 93.5314ZM137.657 114.781C140.145 113.459 142.798 113.231 145.616 114.097C148.434 114.963 150.504 116.64 151.826 119.128C153.147 121.616 153.375 124.269 152.509 127.087C151.643 129.905 149.966 131.975 147.478 133.297C144.99 134.619 142.337 134.846 139.519 133.98C136.701 133.114 134.631 131.437 133.31 128.95C131.988 126.462 131.76 123.809 132.626 120.991C133.492 118.172 135.169 116.103 137.657 114.781Z" fill="#58FFE1"/>
<path d="M126.053 24.8131C124.68 27.4218 124.412 30.0711 125.25 32.7609C126.087 35.4507 127.81 37.4823 130.419 38.8558C133.028 40.2293 135.677 40.4971 138.367 39.6595C141.057 38.8218 143.088 37.0986 144.462 34.4899C145.835 31.8813 146.103 29.232 145.265 26.5422C144.428 23.8524 142.705 21.8208 140.096 20.4473C137.487 19.0738 134.838 18.8059 132.148 19.6436C129.458 20.4813 127.427 22.2044 126.053 24.8131Z" fill="#A64AC9"/>
<path fill-rule="evenodd" clip-rule="evenodd" d="M98.8541 58.0517L116.251 40.5367C114.309 37.3376 113.275 33.9279 113.15 30.3076C113.025 26.6872 113.919 23.0595 115.833 19.4245C118.674 14.0288 122.977 10.4368 128.743 8.64835C134.508 6.85993 140.089 7.38614 145.484 10.227C150.88 13.0678 154.472 17.371 156.261 23.1366C158.049 28.9022 157.523 34.4828 154.682 39.8785C151.841 45.2743 147.538 48.8663 141.772 50.6547C136.007 52.4431 130.426 51.9169 125.03 49.0761L124.349 48.7173L106.248 65.7371L98.8541 58.0517ZM125.25 32.7609C124.412 30.0711 124.68 27.4218 126.053 24.8131C127.427 22.2044 129.458 20.4813 132.148 19.6436C134.838 18.8059 137.487 19.0738 140.096 20.4473C142.705 21.8208 144.428 23.8524 145.265 26.5422C146.103 29.232 145.835 31.8813 144.462 34.4899C143.088 37.0986 141.057 38.8218 138.367 39.6595C135.677 40.4971 133.028 40.2293 130.419 38.8558C127.81 37.4823 126.087 35.4507 125.25 32.7609Z" fill="#58FFE1"/>
<path d="M24.6813 41.6677C27.4179 42.7645 30.0806 42.7576 32.6696 41.6468C35.2586 40.536 37.1015 38.6123 38.1984 35.8758C39.2953 33.1393 39.2884 30.4765 38.1775 27.8876C37.0667 25.2986 35.1431 23.4556 32.4066 22.3587C29.6701 21.2618 27.0073 21.2688 24.4183 22.3796C21.8293 23.4904 19.9864 25.4141 18.8895 28.1506C17.7926 30.8871 17.7996 33.5498 18.9104 36.1388C20.0212 38.7278 21.9448 40.5708 24.6813 41.6677Z" fill="#A64AC9"/>
<path fill-rule="evenodd" clip-rule="evenodd" d="M60.5496 65.2911L41.3326 49.7943C38.3511 52.0568 35.0663 53.4371 31.4782 53.9352C27.8901 54.4332 24.1895 53.918 20.3763 52.3895C14.7163 50.1208 10.6992 46.2113 8.32532 40.661C5.9514 35.1108 5.89883 29.5057 8.16761 23.8456C10.4364 18.1855 14.3459 14.1685 19.8961 11.7946C25.4463 9.42064 31.0515 9.36807 36.7116 11.6368C42.3717 13.9056 46.3887 17.8151 48.7626 23.3653C51.1365 28.9155 51.1891 34.5207 48.9203 40.1808L48.6337 40.8958L67.4309 57.1436L60.5496 65.2911ZM32.6696 41.6468C30.0806 42.7576 27.4179 42.7645 24.6813 41.6677C21.9448 40.5708 20.0212 38.7278 18.9104 36.1388C17.7996 33.5498 17.7926 30.8871 18.8895 28.1506C19.9864 25.4141 21.8293 23.4904 24.4183 22.3796C27.0073 21.2688 29.6701 21.2618 32.4066 22.3587C35.1431 23.4556 37.0667 25.2986 38.1775 27.8876C39.2884 30.4765 39.2953 33.1393 38.1984 35.8758C37.1015 38.6123 35.2586 40.536 32.6696 41.6468Z" fill="#58FFE1"/>
<rect x="61.0305" y="59.0476" width="42.4817" height="42.4817" rx="21.2409" fill="white" stroke="#58FFE1" stroke-width="16"/>
</svg>
