<svg width="185" height="176" viewBox="0 0 185 176" fill="none" xmlns="http://www.w3.org/2000/svg">
<path d="M45.0937 176C38.9913 176 33.8043 173.88 29.5326 169.639C25.2609 165.399 23.125 160.249 23.125 154.191C23.125 148.133 25.2609 142.984 29.5326 138.743C33.8043 134.503 38.9913 132.383 45.0937 132.383C46.8924 132.383 48.4661 132.542 49.8151 132.861C51.1641 133.18 52.5451 133.658 53.9583 134.296L70.3385 114.017C67.8976 111.084 66.0347 107.736 64.75 103.974C63.4653 100.212 63.1441 96.2899 63.7865 92.2087L40.4688 84.3652C38.5417 87.5536 36.0043 90.0406 32.8568 91.8261C29.7092 93.6116 26.0799 94.5043 21.9688 94.5043C15.8663 94.5043 10.6793 92.3841 6.40755 88.1435C2.13585 83.9029 0 78.7536 0 72.6956C0 66.6377 2.13585 61.4884 6.40755 57.2478C10.6793 53.0072 15.8663 50.887 21.9688 50.887C28.0712 50.887 33.2582 53.0072 37.5299 57.2478C41.8016 61.4884 43.9375 66.6377 43.9375 72.6956V73.4609L67.4479 81.4957C69.7604 77.4145 72.5547 74.2899 75.8307 72.1217C79.1068 69.9536 82.7361 68.4232 86.7188 67.5304V42.8522C81.7083 41.4493 77.7578 38.7072 74.8672 34.6261C71.9766 30.5449 70.5313 26.2725 70.5313 21.8087C70.5313 15.7507 72.6671 10.6014 76.9388 6.36087C81.2105 2.12029 86.3976 0 92.5 0C98.6024 0 103.789 2.12029 108.061 6.36087C112.333 10.6014 114.469 15.7507 114.469 21.8087C114.469 26.2725 112.991 30.5449 110.036 34.6261C107.082 38.7072 103.163 41.4493 98.2813 42.8522V67.5304C102.264 68.4232 105.925 69.9536 109.266 72.1217C112.606 74.2899 115.432 77.4145 117.745 81.4957L141.063 73.4609V72.6956C141.063 66.6377 143.198 61.4884 147.47 57.2478C151.742 53.0072 156.929 50.887 163.031 50.887C169.134 50.887 174.321 53.0072 178.592 57.2478C182.864 61.4884 185 66.6377 185 72.6956C185 78.7536 182.864 83.9029 178.592 88.1435C174.321 92.3841 169.134 94.5043 163.031 94.5043C158.92 94.5043 155.259 93.6116 152.047 91.8261C148.835 90.0406 146.33 87.5536 144.531 84.3652L121.214 92.2087C121.856 96.2899 121.567 100.212 120.346 103.974C119.126 107.736 117.231 111.084 114.661 114.017L131.042 134.296C132.455 133.658 133.836 133.18 135.185 132.861C136.534 132.542 138.08 132.383 139.822 132.383C146.045 132.383 151.276 134.503 155.516 138.743C159.755 142.984 161.875 148.133 161.875 154.191C161.875 160.249 159.739 165.399 155.467 169.639C151.196 173.88 146.009 176 139.906 176C133.804 176 128.617 173.88 124.345 169.639C120.073 165.399 117.938 160.249 117.938 154.191C117.938 151.641 118.291 149.345 118.997 147.304C119.704 145.264 120.7 143.287 121.984 141.374L105.604 121.096C101.477 123.264 97.0725 124.348 92.3915 124.348C87.7104 124.348 83.3142 123.264 79.2031 121.096L63.0156 141.565C64.3003 143.478 65.296 145.423 66.0026 147.4C66.7092 149.377 67.0625 151.641 67.0625 154.191C67.0625 160.249 64.9266 165.399 60.6549 169.639C56.3832 173.88 51.1962 176 45.0937 176ZM21.9755 83.0261C24.9259 83.0261 27.3967 82.0354 29.388 80.0542C31.3793 78.0729 32.375 75.6178 32.375 72.689C32.375 69.7601 31.3771 67.3072 29.3813 65.3304C27.3855 63.3536 24.9124 62.3652 21.962 62.3652C19.0116 62.3652 16.5408 63.3559 14.5495 65.3371C12.5582 67.3184 11.5625 69.7735 11.5625 72.7023C11.5625 75.6312 12.5604 78.0841 14.5562 80.0609C16.552 82.0377 19.0251 83.0261 21.9755 83.0261ZM45.1005 164.522C48.0509 164.522 50.5217 163.531 52.513 161.55C54.5043 159.569 55.5 157.113 55.5 154.185C55.5 151.256 54.5021 148.803 52.5063 146.826C50.5105 144.849 48.0374 143.861 45.087 143.861C42.1366 143.861 39.6658 144.852 37.6745 146.833C35.6832 148.814 34.6875 151.269 34.6875 154.198C34.6875 157.127 35.6854 159.58 37.6812 161.557C39.677 163.533 42.1501 164.522 45.1005 164.522ZM92.5067 32.1391C95.4571 32.1391 97.928 31.1485 99.9193 29.1672C101.911 27.1859 102.906 24.7309 102.906 21.802C102.906 18.8731 101.908 16.4203 99.9125 14.4435C97.9167 12.4667 95.4436 11.4783 92.4933 11.4783C89.5429 11.4783 87.0721 12.4689 85.0807 14.4502C83.0894 16.4314 82.0938 18.8865 82.0938 21.8154C82.0938 24.7443 83.0917 27.1971 85.0875 29.1739C87.0833 31.1507 89.5564 32.1391 92.5067 32.1391ZM92.5964 112.87C97.4141 112.87 101.493 111.18 104.833 107.8C108.174 104.42 109.844 100.339 109.844 95.5565C109.844 90.7739 108.167 86.7246 104.814 83.4087C101.461 80.0928 97.3563 78.4348 92.5 78.4348C87.7465 78.4348 83.6675 80.0991 80.263 83.4278C76.8585 86.7565 75.1563 90.8313 75.1563 95.6522C75.1563 100.371 76.8585 104.42 80.263 107.8C83.6675 111.18 87.7786 112.87 92.5964 112.87ZM139.913 164.522C142.863 164.522 145.334 163.531 147.326 161.55C149.317 159.569 150.313 157.113 150.313 154.185C150.313 151.256 149.315 148.803 147.319 146.826C145.323 144.849 142.85 143.861 139.9 143.861C136.949 143.861 134.478 144.852 132.487 146.833C130.496 148.814 129.5 151.269 129.5 154.198C129.5 157.127 130.498 159.58 132.494 161.557C134.49 163.533 136.963 164.522 139.913 164.522ZM163.038 83.0261C165.988 83.0261 168.459 82.0354 170.451 80.0542C172.442 78.0729 173.438 75.6178 173.438 72.689C173.438 69.7601 172.44 67.3072 170.444 65.3304C168.448 63.3536 165.975 62.3652 163.025 62.3652C160.074 62.3652 157.603 63.3559 155.612 65.3371C153.621 67.3184 152.625 69.7735 152.625 72.7023C152.625 75.6312 153.623 78.0841 155.619 80.0609C157.615 82.0377 160.088 83.0261 163.038 83.0261Z" fill="#58FFE1"/>
<path d="M163.038 83.0261C165.988 83.0261 168.459 82.0354 170.451 80.0542C172.442 78.0729 173.438 75.6178 173.438 72.689C173.438 69.7601 172.44 67.3072 170.444 65.3304C168.448 63.3536 165.975 62.3652 163.025 62.3652C160.074 62.3652 157.603 63.3559 155.612 65.3371C153.621 67.3184 152.625 69.7735 152.625 72.7023C152.625 75.6312 153.623 78.0841 155.619 80.0609C157.615 82.0377 160.088 83.0261 163.038 83.0261Z" fill="#A64AC9"/>
<path d="M92.5067 32.1391C95.4571 32.1391 97.928 31.1485 99.9193 29.1672C101.911 27.1859 102.906 24.7309 102.906 21.802C102.906 18.8731 101.908 16.4203 99.9125 14.4435C97.9167 12.4667 95.4436 11.4783 92.4933 11.4783C89.5429 11.4783 87.0721 12.4689 85.0807 14.4502C83.0894 16.4314 82.0938 18.8865 82.0938 21.8154C82.0938 24.7443 83.0917 27.1971 85.0875 29.1739C87.0833 31.1507 89.5564 32.1391 92.5067 32.1391Z" fill="#A64AC9"/>
<path d="M21.9755 83.0261C24.9259 83.0261 27.3967 82.0354 29.388 80.0542C31.3793 78.0729 32.375 75.6178 32.375 72.689C32.375 69.7601 31.3771 67.3072 29.3813 65.3304C27.3855 63.3536 24.9124 62.3652 21.962 62.3652C19.0116 62.3652 16.5408 63.3559 14.5495 65.3371C12.5582 67.3184 11.5625 69.7735 11.5625 72.7023C11.5625 75.6312 12.5604 78.0841 14.5562 80.0609C16.552 82.0377 19.0251 83.0261 21.9755 83.0261Z" fill="#A64AC9"/>
<path d="M45.1005 164.522C48.0509 164.522 50.5217 163.531 52.513 161.55C54.5043 159.569 55.5 157.113 55.5 154.185C55.5 151.256 54.5021 148.803 52.5063 146.826C50.5105 144.849 48.0374 143.861 45.087 143.861C42.1366 143.861 39.6658 144.852 37.6745 146.833C35.6832 148.814 34.6875 151.269 34.6875 154.198C34.6875 157.127 35.6854 159.58 37.6812 161.557C39.677 163.533 42.1501 164.522 45.1005 164.522Z" fill="#A64AC9"/>
<path d="M139.913 164.522C142.863 164.522 145.334 163.531 147.326 161.55C149.317 159.569 150.313 157.113 150.313 154.185C150.313 151.256 149.315 148.803 147.319 146.826C145.323 144.849 142.85 143.861 139.9 143.861C136.949 143.861 134.478 144.852 132.487 146.833C130.496 148.814 129.5 151.269 129.5 154.198C129.5 157.127 130.498 159.58 132.494 161.557C134.49 163.533 136.963 164.522 139.913 164.522Z" fill="#A64AC9"/>
<path d="M92.5964 112.87C97.4141 112.87 101.493 111.18 104.833 107.8C108.174 104.42 109.844 100.339 109.844 95.5565C109.844 90.7739 108.167 86.7246 104.814 83.4087C101.461 80.0928 97.3563 78.4348 92.5 78.4348C87.7465 78.4348 83.6675 80.0991 80.263 83.4278C76.8585 86.7565 75.1563 90.8313 75.1563 95.6522C75.1563 100.371 76.8585 104.42 80.263 107.8C83.6675 111.18 87.7786 112.87 92.5964 112.87Z" fill="white"/>
</svg>
