<svg width="27" height="27" viewBox="0 0 27 27" fill="none" xmlns="http://www.w3.org/2000/svg">
<rect x="1" y="1" width="25" height="25" rx="12.5" stroke="#A64AC9" stroke-width="2"/>
<path d="M8.0906 13.7755L5.97298 15.8913L3.85718 13.7755L5.97298 11.6597L8.0906 13.7755ZM13.2245 8.63793L16.8503 12.2655L18.9661 10.1497L13.2245 4.40816L7.48295 10.1497L9.59875 12.2655L13.2245 8.63793ZM20.4779 11.6597L18.3621 13.7755L20.4779 15.8913L22.5919 13.7755L20.4779 11.6597ZM13.2245 18.9131L9.59875 15.2873L7.48295 17.4013L13.2245 23.1429L18.9661 17.4013L16.8503 15.2873L13.2245 18.9131ZM13.2245 15.8913L15.3403 13.7755L13.2245 11.6597L11.1087 13.7755L13.2245 15.8913Z" fill="#A64AC9"/>
</svg>
