<svg width="27" height="27" viewBox="0 0 27 27" fill="none" xmlns="http://www.w3.org/2000/svg">
<rect x="1" y="1" width="25" height="25" rx="12.5" stroke="#A64AC9" stroke-width="2"/>
<path d="M21.1323 7.02439C21.1079 7.06518 21.0426 7.261 20.9855 7.46498C20.9365 7.66895 20.8223 8.07691 20.7325 8.37879L20.5775 8.91729L19.9003 9.14575C19.5332 9.25997 19.1986 9.38236 19.1578 9.40684C19.1171 9.43131 19.3945 9.56186 19.7861 9.70872C20.1777 9.84743 20.5286 9.99429 20.5612 10.0351C20.6428 10.1248 21.0671 11.4548 21.0671 11.6098C21.0671 11.6669 21.0997 11.7077 21.1323 11.7077C21.165 11.7077 21.2955 11.365 21.4261 10.9489C21.5485 10.5246 21.679 10.1412 21.7198 10.0759C21.7524 10.0188 22.1196 9.85559 22.5357 9.70872L23.2945 9.44763L22.5031 9.17838C21.7524 8.91729 21.7116 8.89282 21.6382 8.61541C21.5893 8.45223 21.4669 8.01164 21.369 7.63632C21.2629 7.25284 21.1568 6.98359 21.1323 7.02439Z" fill="#A64AC9"/>
<path d="M7.57188 8.41144C7.23736 8.7378 7.49029 8.8765 9.22818 9.33341C10.9008 9.78216 11.0313 9.78216 11.0313 9.37421C11.0313 9.21103 10.9579 9.16207 10.4847 9.02337C9.87274 8.84387 7.78402 8.28089 7.72691 8.28089C7.71059 8.28089 7.63716 8.338 7.57188 8.41144Z" fill="#A64AC9"/>
<path d="M16.09 8.70517C15.2578 8.92546 14.5316 9.15392 14.4827 9.19471C14.344 9.30894 14.3521 9.54555 14.4908 9.65978C14.5887 9.74137 14.9396 9.66794 16.1879 9.34157C17.0528 9.10496 17.8116 8.87651 17.8687 8.83571C18.0155 8.70517 17.9911 8.46039 17.8116 8.36249C17.7218 8.32169 17.6402 8.28089 17.6239 8.28905C17.6076 8.28905 16.9222 8.47671 16.09 8.70517Z" fill="#A64AC9"/>
<path d="M8.58358 10.6307L8.33881 10.8755V12.5889C8.33881 14.1799 8.34697 14.3104 8.50199 14.5063C8.71412 14.7755 9.07312 14.8571 9.38317 14.6939C9.7748 14.4899 9.82376 14.2696 9.79112 12.4583C9.76664 10.9244 9.75848 10.802 9.5953 10.647C9.50555 10.5573 9.29342 10.4594 9.13024 10.4267C8.8773 10.3859 8.80387 10.4186 8.58358 10.6307Z" fill="#A64AC9"/>
<path d="M16.1716 10.6225C16.1063 10.647 15.9676 10.7449 15.8697 10.8347C15.6821 10.9979 15.6821 11.0386 15.6821 12.7847C15.6821 14.4491 15.6902 14.5715 15.8452 14.7265C16.2206 15.1019 16.7754 15.0203 17.0038 14.5634C17.1262 14.3186 17.1507 14.0412 17.1507 12.7847C17.1507 11.0876 17.0854 10.8102 16.6448 10.6552C16.3674 10.5573 16.3511 10.5573 16.1716 10.6225Z" fill="#A64AC9"/>
<path d="M4.65914 12.5889C3.8106 13.0295 3.47608 13.9922 3.85139 14.8734C4.56939 16.546 7.11502 16.1626 7.26189 14.3676C7.32716 13.5435 6.96 12.8826 6.26648 12.5562C5.69535 12.287 5.21396 12.3033 4.65914 12.5889Z" fill="#A64AC9"/>
<path d="M19.4026 12.442C17.779 12.9316 17.7382 15.2977 19.3455 15.8525C20.5367 16.2605 21.7116 15.4201 21.7198 14.1636C21.7198 12.9397 20.5775 12.0912 19.4026 12.442Z" fill="#A64AC9"/>
<path d="M8.3145 17.0764C8.05341 17.3619 8.14316 17.6638 8.59191 18.0881C9.40781 18.8469 10.4848 19.3446 11.7739 19.5486C12.4104 19.6465 14.2298 19.6057 14.6623 19.4751C14.9641 19.3935 15.16 19.0427 15.0294 18.8061C14.8907 18.5532 14.6949 18.4879 14.2951 18.5613C13.7158 18.6755 12.1085 18.6511 11.4802 18.5205C10.7051 18.3573 9.85656 17.9249 9.24463 17.3783C8.70613 16.8969 8.52663 16.8398 8.3145 17.0764Z" fill="#A64AC9"/>
</svg>
