<svg width="374" height="358" viewBox="0 0 374 358" fill="none" xmlns="http://www.w3.org/2000/svg">
<path d="M91.2585 357.798C78.9546 357.798 68.4964 353.492 59.8837 344.879C51.2711 336.266 46.9647 325.808 46.9647 313.504C46.9647 301.2 51.2711 290.742 59.8837 282.13C68.4964 273.517 78.9546 269.211 91.2585 269.211C94.8849 269.211 98.0579 269.534 100.778 270.182C103.498 270.829 106.282 271.801 109.131 273.096L142.157 231.911C137.236 225.953 133.48 219.153 130.89 211.512C128.299 203.871 127.652 195.906 128.947 187.617L81.9335 171.687C78.0481 178.162 72.9323 183.213 66.5861 186.84C60.2399 190.466 52.9224 192.279 44.6335 192.279C32.3297 192.279 21.8714 187.973 13.2587 179.36C4.64606 170.748 0.339722 160.289 0.339722 147.986C0.339722 135.682 4.64606 125.223 13.2587 116.611C21.8714 107.998 32.3297 103.692 44.6335 103.692C56.9373 103.692 67.3955 107.998 76.0082 116.611C84.6209 125.223 88.9272 135.682 88.9272 147.986V149.54L136.329 165.858C140.992 157.57 146.626 151.223 153.231 146.82C159.836 142.416 167.154 139.308 175.183 137.495V87.3731C165.081 84.5237 157.116 78.9547 151.288 70.6658C145.46 62.3769 142.546 53.6994 142.546 44.6335C142.546 32.3297 146.852 21.8714 155.465 13.2587C164.078 4.64606 174.536 0.339722 186.84 0.339722C199.144 0.339722 209.602 4.64606 218.214 13.2587C226.827 21.8714 231.133 32.3297 231.133 44.6335C231.133 53.6994 228.155 62.3769 222.197 70.6658C216.239 78.9547 208.339 84.5237 198.496 87.3731V137.495C206.526 139.308 213.908 142.416 220.643 146.82C227.378 151.223 233.076 157.57 237.739 165.858L284.752 149.54V147.986C284.752 135.682 289.059 125.223 297.671 116.611C306.284 107.998 316.742 103.692 329.046 103.692C341.35 103.692 351.808 107.998 360.421 116.611C369.033 125.223 373.34 135.682 373.34 147.986C373.34 160.289 369.033 170.748 360.421 179.36C351.808 187.973 341.35 192.279 329.046 192.279C320.757 192.279 313.375 190.466 306.899 186.84C300.423 183.213 295.372 178.162 291.746 171.687L244.732 187.617C246.028 195.906 245.445 203.871 242.984 211.512C240.523 219.153 236.703 225.953 231.522 231.911L264.548 273.096C267.397 271.801 270.182 270.829 272.902 270.182C275.621 269.534 278.738 269.211 282.251 269.211C294.798 269.211 305.345 273.517 313.893 282.13C322.441 290.742 326.715 301.2 326.715 313.504C326.715 325.808 322.408 336.266 313.796 344.879C305.183 353.492 294.725 357.798 282.421 357.798C270.117 357.798 259.659 353.492 251.046 344.879C242.434 336.266 238.127 325.808 238.127 313.504C238.127 308.324 238.84 303.661 240.264 299.517C241.689 295.372 243.696 291.357 246.287 287.472L213.261 246.287C204.939 250.69 196.059 252.892 186.621 252.892C177.183 252.892 168.319 250.69 160.03 246.287L127.393 287.861C129.983 291.746 131.991 295.696 133.415 299.711C134.84 303.726 135.552 308.324 135.552 313.504C135.552 325.808 131.246 336.266 122.633 344.879C114.021 353.492 103.562 357.798 91.2585 357.798ZM44.6471 168.967C50.5956 168.967 55.5774 166.955 59.5923 162.931C63.6073 158.907 65.6147 153.921 65.6147 147.972C65.6147 142.023 63.6027 137.042 59.5787 133.027C55.5547 129.012 50.5684 127.004 44.6199 127.004C38.6713 127.004 33.6895 129.016 29.6746 133.04C25.6597 137.064 23.6522 142.051 23.6522 147.999C23.6522 153.948 25.6642 158.929 29.6882 162.944C33.7122 166.959 38.6985 168.967 44.6471 168.967ZM91.2721 334.486C97.2206 334.486 102.202 332.474 106.217 328.45C110.232 324.426 112.24 319.439 112.24 313.491C112.24 307.542 110.228 302.56 106.204 298.545C102.18 294.531 97.1934 292.523 91.2449 292.523C85.2963 292.523 80.3146 294.535 76.2996 298.559C72.2847 302.583 70.2772 307.569 70.2772 313.518C70.2772 319.466 72.2892 324.448 76.3132 328.463C80.3372 332.478 85.3235 334.486 91.2721 334.486ZM186.853 65.6147C192.802 65.6147 197.784 63.6027 201.799 59.5787C205.814 55.5547 207.821 50.5684 207.821 44.6199C207.821 38.6713 205.809 33.6895 201.785 29.6746C197.761 25.6597 192.775 23.6522 186.826 23.6522C180.878 23.6522 175.896 25.6642 171.881 29.6882C167.866 33.7122 165.858 38.6985 165.858 44.6471C165.858 50.5956 167.87 55.5774 171.894 59.5923C175.918 63.6073 180.905 65.6147 186.853 65.6147ZM187.034 229.579C196.748 229.579 204.972 226.147 211.706 219.283C218.441 212.419 221.808 204.13 221.808 194.416C221.808 184.703 218.428 176.479 211.668 169.744C204.907 163.009 196.631 159.642 186.84 159.642C177.256 159.642 169.032 163.022 162.167 169.783C155.303 176.543 151.871 184.819 151.871 194.611C151.871 204.195 155.303 212.419 162.167 219.283C169.032 226.147 177.32 229.579 187.034 229.579ZM282.435 334.486C288.383 334.486 293.365 332.474 297.38 328.45C301.395 324.426 303.402 319.439 303.402 313.491C303.402 307.542 301.39 302.56 297.366 298.545C293.342 294.531 288.356 292.523 282.407 292.523C276.459 292.523 271.477 294.535 267.462 298.559C263.447 302.583 261.44 307.569 261.44 313.518C261.44 319.466 263.452 324.448 267.476 328.463C271.5 332.478 276.486 334.486 282.435 334.486ZM329.06 168.967C335.008 168.967 339.99 166.955 344.005 162.931C348.02 158.907 350.027 153.921 350.027 147.972C350.027 142.023 348.015 137.042 343.991 133.027C339.967 129.012 334.981 127.004 329.032 127.004C323.084 127.004 318.102 129.016 314.087 133.04C310.072 137.064 308.065 142.051 308.065 147.999C308.065 153.948 310.077 158.929 314.101 162.944C318.125 166.959 323.111 168.967 329.06 168.967Z" fill="#58FFE1"/>
<path d="M329.06 168.967C335.008 168.967 339.99 166.955 344.005 162.931C348.02 158.907 350.027 153.921 350.027 147.972C350.027 142.023 348.015 137.042 343.991 133.027C339.967 129.012 334.981 127.004 329.032 127.004C323.084 127.004 318.102 129.016 314.087 133.04C310.072 137.064 308.065 142.051 308.065 147.999C308.065 153.948 310.077 158.929 314.101 162.944C318.125 166.959 323.111 168.967 329.06 168.967Z" fill="#A64AC9"/>
<path d="M186.853 65.6147C192.802 65.6147 197.784 63.6027 201.799 59.5787C205.814 55.5547 207.821 50.5684 207.821 44.6199C207.821 38.6713 205.809 33.6895 201.785 29.6746C197.761 25.6597 192.775 23.6522 186.826 23.6522C180.878 23.6522 175.896 25.6642 171.881 29.6882C167.866 33.7122 165.858 38.6985 165.858 44.6471C165.858 50.5956 167.87 55.5774 171.894 59.5923C175.918 63.6073 180.905 65.6147 186.853 65.6147Z" fill="#A64AC9"/>
<path d="M44.6471 168.967C50.5956 168.967 55.5774 166.955 59.5923 162.931C63.6073 158.907 65.6147 153.921 65.6147 147.972C65.6147 142.023 63.6027 137.042 59.5787 133.027C55.5547 129.012 50.5684 127.004 44.6199 127.004C38.6713 127.004 33.6895 129.016 29.6746 133.04C25.6597 137.064 23.6522 142.051 23.6522 147.999C23.6522 153.948 25.6642 158.929 29.6882 162.944C33.7122 166.959 38.6985 168.967 44.6471 168.967Z" fill="#A64AC9"/>
<path d="M91.2721 334.486C97.2206 334.486 102.202 332.474 106.217 328.45C110.232 324.426 112.24 319.439 112.24 313.491C112.24 307.542 110.228 302.56 106.204 298.545C102.18 294.531 97.1934 292.523 91.2449 292.523C85.2963 292.523 80.3146 294.535 76.2996 298.559C72.2847 302.583 70.2772 307.569 70.2772 313.518C70.2772 319.466 72.2892 324.448 76.3132 328.463C80.3372 332.478 85.3235 334.486 91.2721 334.486Z" fill="#A64AC9"/>
<path d="M282.435 334.486C288.383 334.486 293.365 332.474 297.38 328.45C301.395 324.426 303.402 319.439 303.402 313.491C303.402 307.542 301.39 302.56 297.366 298.545C293.342 294.531 288.356 292.523 282.407 292.523C276.459 292.523 271.477 294.535 267.462 298.559C263.447 302.583 261.44 307.569 261.44 313.518C261.44 319.466 263.452 324.448 267.476 328.463C271.5 332.478 276.486 334.486 282.435 334.486Z" fill="#A64AC9"/>
<path d="M187.034 229.579C196.748 229.579 204.972 226.147 211.706 219.283C218.441 212.419 221.808 204.13 221.808 194.416C221.808 184.703 218.428 176.479 211.668 169.744C204.907 163.009 196.631 159.642 186.84 159.642C177.256 159.642 169.032 163.022 162.167 169.783C155.303 176.543 151.871 184.819 151.871 194.611C151.871 204.195 155.303 212.419 162.167 219.283C169.032 226.147 177.32 229.579 187.034 229.579Z" fill="white"/>
</svg>
