<svg width="1673" height="43" viewBox="0 0 1673 43" fill="none" xmlns="http://www.w3.org/2000/svg">
<path d="M0.22 41.207L-1.54441 40.2653L-1.78 40.7067V41.207H0.22ZM21.936 0.52V-1.48H20.7364L20.1716 -0.421726L21.936 0.52ZM28.89 0.52H30.89V-1.48H28.89V0.52ZM28.89 1.252L30.6561 2.19057L30.89 1.75043V1.252H28.89ZM7.235 42V44H8.43701L9.00109 42.9386L7.235 42ZM0.22 42H-1.78V44H0.22V42ZM1.98441 42.1487L23.7004 1.46173L20.1716 -0.421726L-1.54441 40.2653L1.98441 42.1487ZM21.936 2.52H28.89V-1.48H21.936V2.52ZM26.89 0.52V1.252H30.89V0.52H26.89ZM27.1239 0.313429L5.46891 41.0614L9.00109 42.9386L30.6561 2.19057L27.1239 0.313429ZM7.235 40H0.22V44H7.235V40ZM2.22 42V41.207H-1.78V42H2.22ZM31.2561 41.207L29.4917 40.2653L29.2561 40.7067V41.207H31.2561ZM52.9721 0.52V-1.48H51.7726L51.2077 -0.421726L52.9721 0.52ZM59.9261 0.52H61.9261V-1.48H59.9261V0.52ZM59.9261 1.252L61.6922 2.19057L61.9261 1.75043V1.252H59.9261ZM38.2711 42V44H39.4731L40.0372 42.9386L38.2711 42ZM31.2561 42H29.2561V44H31.2561V42ZM33.0205 42.1487L54.7365 1.46173L51.2077 -0.421726L29.4917 40.2653L33.0205 42.1487ZM52.9721 2.52H59.9261V-1.48H52.9721V2.52ZM57.9261 0.52V1.252H61.9261V0.52H57.9261ZM58.16 0.313429L36.505 41.0614L40.0372 42.9386L61.6922 2.19057L58.16 0.313429ZM38.2711 40H31.2561V44H38.2711V40ZM33.2561 42V41.207H29.2561V42H33.2561ZM110.848 28.458V30.458H112.848V28.458H110.848ZM91.8163 28.458V26.458H89.8163V28.458H91.8163ZM91.8163 42V44H93.8163V42H91.8163ZM82.0563 42H80.0563V44H82.0563V42ZM82.0563 0.52V-1.48H80.0563V0.52H82.0563ZM114.142 0.52H116.142V-1.48H114.142V0.52ZM114.142 9.487V11.487H116.142V9.487H114.142ZM91.8163 9.487V7.487H89.8163V9.487H91.8163ZM91.8163 19.491H89.8163V21.491H91.8163V19.491ZM110.848 19.491H112.848V17.491H110.848V19.491ZM110.848 26.458H91.8163V30.458H110.848V26.458ZM89.8163 28.458V42H93.8163V28.458H89.8163ZM91.8163 40H82.0563V44H91.8163V40ZM84.0563 42V0.52H80.0563V42H84.0563ZM82.0563 2.52H114.142V-1.48H82.0563V2.52ZM112.142 0.52V9.487H116.142V0.52H112.142ZM114.142 7.487H91.8163V11.487H114.142V7.487ZM89.8163 9.487V19.491H93.8163V9.487H89.8163ZM91.8163 21.491H110.848V17.491H91.8163V21.491ZM108.848 19.491V28.458H112.848V19.491H108.848ZM115.354 42L113.488 41.2786L112.436 44H115.354V42ZM131.397 0.52V-1.48H130.026L129.531 -0.20145L131.397 0.52ZM143.414 0.52L145.284 -0.189475L144.794 -1.48H143.414V0.52ZM159.152 42V44H162.05L161.022 41.2905L159.152 42ZM148.782 42L146.905 42.6907L147.387 44H148.782V42ZM145.976 34.375L147.853 33.6843L147.371 32.375H145.976V34.375ZM128.591 34.375V32.375H127.206L126.719 33.6711L128.591 34.375ZM125.724 42V44H127.108L127.596 42.7039L125.724 42ZM137.436 10.646L139.312 9.95459L137.482 4.98706L135.571 9.92382L137.436 10.646ZM131.153 26.872L129.288 26.1498L128.234 28.872H131.153V26.872ZM143.414 26.872V28.872H146.282L145.29 26.1806L143.414 26.872ZM117.219 42.7214L133.262 1.24145L129.531 -0.20145L113.488 41.2786L117.219 42.7214ZM131.397 2.52H143.414V-1.48H131.397V2.52ZM141.544 1.22947L157.282 42.7095L161.022 41.2905L145.284 -0.189475L141.544 1.22947ZM159.152 40H148.782V44H159.152V40ZM150.659 41.3093L147.853 33.6843L144.099 35.0657L146.905 42.6907L150.659 41.3093ZM145.976 32.375H128.591V36.375H145.976V32.375ZM126.719 33.6711L123.852 41.2961L127.596 42.7039L130.463 35.0789L126.719 33.6711ZM125.724 40H115.354V44H125.724V40ZM135.571 9.92382L129.288 26.1498L133.018 27.5942L139.301 11.3682L135.571 9.92382ZM131.153 28.872H143.414V24.872H131.153V28.872ZM145.29 26.1806L139.312 9.95459L135.559 11.3374L141.537 27.5634L145.29 26.1806ZM165.633 42H163.633V44H165.633V42ZM165.633 0.52V-1.48H163.633V0.52H165.633ZM193.083 1.862L193.804 -0.00384919L193.804 -0.00384997L193.083 1.862ZM198.878 6.376L197.264 7.55603L197.271 7.56606L197.278 7.576L198.878 6.376ZM198.207 22.358L196.728 21.0127L196.721 21.0201L196.714 21.0276L198.207 22.358ZM190.399 26.689L190.002 24.7288L186.35 25.4684L188.985 28.1032L190.399 26.689ZM191.192 27.421L192.547 25.9499L192.534 25.9379L192.521 25.9262L191.192 27.421ZM194.73 30.654L193.392 32.1406L193.431 32.1756L193.472 32.2085L194.73 30.654ZM197.963 32.728L197.025 34.4942L197.036 34.5002L197.048 34.5059L197.963 32.728ZM206.015 32.972L208.001 32.7313L207.678 30.0716L205.22 31.1369L206.015 32.972ZM206.991 41.024L207.886 42.8129L209.146 42.1825L208.977 40.7833L206.991 41.024ZM193.266 40.658L194.259 38.9215L194.259 38.9215L193.266 40.658ZM187.532 36.327L186.082 37.7045L186.091 37.7137L186.1 37.7227L187.532 36.327ZM182.408 31.02L180.964 32.4031L180.971 32.4111L180.979 32.4189L182.408 31.02ZM178.077 27.055L179.216 25.4106L178.702 25.055H178.077V27.055ZM175.881 27.055V25.055H173.881V27.055H175.881ZM175.881 42V44H177.881V42H175.881ZM175.881 9.426V7.426H173.881V9.426H175.881ZM175.881 19.674H173.881V21.674H175.881V19.674ZM189.118 18.271L187.764 16.7991L187.749 16.8129L187.735 16.827L189.118 18.271ZM189.118 10.829L187.735 12.273L187.765 12.3024L187.797 12.3304L189.118 10.829ZM167.633 42V0.52H163.633V42H167.633ZM165.633 2.52H185.336V-1.48H165.633V2.52ZM185.336 2.52C187.972 2.52 190.306 2.93379 192.363 3.72784L193.804 -0.00384997C191.225 -0.999122 188.394 -1.48 185.336 -1.48V2.52ZM192.363 3.72784C194.304 4.47677 195.932 5.73342 197.264 7.55603L200.493 5.19596C198.734 2.78924 196.499 1.03656 193.804 -0.00384919L192.363 3.72784ZM197.278 7.576C198.563 9.28829 199.257 11.4502 199.257 14.184H203.257C203.257 10.7365 202.366 7.69304 200.478 5.176L197.278 7.576ZM199.257 14.184C199.257 16.9333 198.404 19.1687 196.728 21.0127L199.687 23.7033C202.078 21.074 203.257 17.86 203.257 14.184H199.257ZM196.714 21.0276C195.037 22.9105 192.833 24.1554 190.002 24.7288L190.796 28.6492C194.391 27.9212 197.393 26.2788 199.701 23.6884L196.714 21.0276ZM188.985 28.1032C189.192 28.31 189.493 28.5866 189.864 28.9158L192.521 25.9262C192.159 25.6047 191.932 25.3934 191.814 25.2748L188.985 28.1032ZM189.837 28.8921C191.384 30.3168 192.57 31.4007 193.392 32.1406L196.068 29.1674C195.264 28.4433 194.091 27.3718 192.547 25.9499L189.837 28.8921ZM193.472 32.2085C194.453 33.0024 195.646 33.7617 197.025 34.4942L198.902 30.9618C197.678 30.3117 196.716 29.6882 195.989 29.0995L193.472 32.2085ZM197.048 34.5059C198.572 35.2914 200.11 35.765 201.623 35.765V31.765C200.941 31.765 200.039 31.5473 198.879 30.9501L197.048 34.5059ZM201.623 35.765C203.53 35.765 205.279 35.4708 206.811 34.8071L205.22 31.1369C204.312 31.5306 203.133 31.765 201.623 31.765V35.765ZM204.03 33.2127L205.006 41.2647L208.977 40.7833L208.001 32.7313L204.03 33.2127ZM206.097 39.2351C204.283 40.1422 202.254 40.61 199.976 40.61V44.61C202.822 44.61 205.471 44.0204 207.886 42.8129L206.097 39.2351ZM199.976 40.61C198.19 40.61 196.293 40.0838 194.259 38.9215L192.274 42.3945C194.795 43.8349 197.37 44.61 199.976 44.61V40.61ZM194.259 38.9215C192.114 37.6962 190.359 36.3618 188.965 34.9313L186.1 37.7227C187.797 39.4642 189.864 41.0172 192.274 42.3945L194.259 38.9215ZM188.982 34.9495C187.429 33.3144 185.714 31.5382 183.838 29.6211L180.979 32.4189C182.844 34.3245 184.545 36.0862 186.082 37.7045L188.982 34.9495ZM183.853 29.6369C182.006 27.7078 180.447 26.2633 179.216 25.4106L176.939 28.6994C177.822 29.3107 179.151 30.5096 180.964 32.4031L183.853 29.6369ZM178.077 25.055H175.881V29.055H178.077V25.055ZM173.881 27.055V42H177.881V27.055H173.881ZM175.881 40H165.633V44H175.881V40ZM185.153 7.426H175.881V11.426H185.153V7.426ZM173.881 9.426V19.674H177.881V9.426H173.881ZM175.881 21.674H185.153V17.674H175.881V21.674ZM185.153 21.674C187.21 21.674 189.071 21.0862 190.502 19.715L187.735 16.827C187.213 17.3265 186.432 17.674 185.153 17.674V21.674ZM190.473 19.7429C191.952 18.3817 192.643 16.5812 192.643 14.55H188.643C188.643 15.6095 188.318 16.2896 187.764 16.7991L190.473 19.7429ZM192.643 14.55C192.643 12.4976 191.963 10.6681 190.44 9.32757L187.797 12.3304C188.307 12.7793 188.643 13.4304 188.643 14.55H192.643ZM190.502 9.38502C189.071 8.0138 187.21 7.426 185.153 7.426V11.426C186.432 11.426 187.213 11.7735 187.735 12.273L190.502 9.38502ZM250.375 42H248.375V44H250.375V42ZM250.375 16.624H252.375V11.0999L248.838 15.3436L250.375 16.624ZM237.87 31.63V33.63H238.807L239.406 32.9104L237.87 31.63ZM236.101 31.63L234.561 32.9067L235.161 33.63H236.101V31.63ZM223.657 16.624L225.196 15.3473L221.657 11.0791V16.624H223.657ZM223.657 42V44H225.657V42H223.657ZM213.409 42H211.409V44H213.409V42ZM213.409 0.52V-1.48H211.409V0.52H213.409ZM222.254 0.52L223.776 -0.777164L223.177 -1.48H222.254V0.52ZM237.016 17.844L235.494 19.1412L237.016 20.9277L238.538 19.1412L237.016 17.844ZM251.778 0.52V-1.48H250.854L250.256 -0.777164L251.778 0.52ZM260.623 0.52H262.623V-1.48H260.623V0.52ZM260.623 42V44H262.623V42H260.623ZM252.375 42V16.624H248.375V42H252.375ZM248.838 15.3436L236.333 30.3496L239.406 32.9104L251.911 17.9044L248.838 15.3436ZM237.87 29.63H236.101V33.63H237.87V29.63ZM237.64 30.3533L225.196 15.3473L222.117 17.9007L234.561 32.9067L237.64 30.3533ZM221.657 16.624V42H225.657V16.624H221.657ZM223.657 40H213.409V44H223.657V40ZM215.409 42V0.52H211.409V42H215.409ZM213.409 2.52H222.254V-1.48H213.409V2.52ZM220.732 1.81716L235.494 19.1412L238.538 16.5468L223.776 -0.777164L220.732 1.81716ZM238.538 19.1412L253.3 1.81716L250.256 -0.777164L235.494 16.5468L238.538 19.1412ZM251.778 2.52H260.623V-1.48H251.778V2.52ZM258.623 0.52V42H262.623V0.52H258.623ZM260.623 40H250.375V44H260.623V40ZM282.762 41.207L280.998 40.2653L280.762 40.7067V41.207H282.762ZM304.478 0.52V-1.48H303.278L302.714 -0.421726L304.478 0.52ZM311.432 0.52H313.432V-1.48H311.432V0.52ZM311.432 1.252L313.198 2.19057L313.432 1.75043V1.252H311.432ZM289.777 42V44H290.979L291.543 42.9386L289.777 42ZM282.762 42H280.762V44H282.762V42ZM284.526 42.1487L306.242 1.46173L302.714 -0.421726L280.998 40.2653L284.526 42.1487ZM304.478 2.52H311.432V-1.48H304.478V2.52ZM309.432 0.52V1.252H313.432V0.52H309.432ZM309.666 0.313429L288.011 41.0614L291.543 42.9386L313.198 2.19057L309.666 0.313429ZM289.777 40H282.762V44H289.777V40ZM284.762 42V41.207H280.762V42H284.762ZM300.037 41.207L298.273 40.2653L298.037 40.7067V41.207H300.037ZM321.753 0.52V-1.48H320.554L319.989 -0.421726L321.753 0.52ZM328.707 0.52H330.707V-1.48H328.707V0.52ZM328.707 1.252L330.473 2.19057L330.707 1.75043V1.252H328.707ZM307.052 42V44H308.254L308.818 42.9386L307.052 42ZM300.037 42H298.037V44H300.037V42ZM301.802 42.1487L323.518 1.46173L319.989 -0.421726L298.273 40.2653L301.802 42.1487ZM321.753 2.52H328.707V-1.48H321.753V2.52ZM326.707 0.52V1.252H330.707V0.52H326.707ZM326.941 0.313429L305.286 41.0614L308.818 42.9386L330.473 2.19057L326.941 0.313429ZM307.052 40H300.037V44H307.052V40ZM302.037 42V41.207H298.037V42H302.037ZM379.63 28.458V30.458H381.63V28.458H379.63ZM360.598 28.458V26.458H358.598V28.458H360.598ZM360.598 42V44H362.598V42H360.598ZM350.838 42H348.838V44H350.838V42ZM350.838 0.52V-1.48H348.838V0.52H350.838ZM382.924 0.52H384.924V-1.48H382.924V0.52ZM382.924 9.487V11.487H384.924V9.487H382.924ZM360.598 9.487V7.487H358.598V9.487H360.598ZM360.598 19.491H358.598V21.491H360.598V19.491ZM379.63 19.491H381.63V17.491H379.63V19.491ZM379.63 26.458H360.598V30.458H379.63V26.458ZM358.598 28.458V42H362.598V28.458H358.598ZM360.598 40H350.838V44H360.598V40ZM352.838 42V0.52H348.838V42H352.838ZM350.838 2.52H382.924V-1.48H350.838V2.52ZM380.924 0.52V9.487H384.924V0.52H380.924ZM382.924 7.487H360.598V11.487H382.924V7.487ZM358.598 9.487V19.491H362.598V9.487H358.598ZM360.598 21.491H379.63V17.491H360.598V21.491ZM377.63 19.491V28.458H381.63V19.491H377.63ZM384.135 42L382.27 41.2786L381.217 44H384.135V42ZM400.178 0.52V-1.48H398.807L398.313 -0.20145L400.178 0.52ZM412.195 0.52L414.065 -0.189475L413.575 -1.48H412.195V0.52ZM427.933 42V44H430.831L429.803 41.2905L427.933 42ZM417.563 42L415.686 42.6907L416.168 44H417.563V42ZM414.757 34.375L416.634 33.6843L416.152 32.375H414.757V34.375ZM397.372 34.375V32.375H395.987L395.5 33.6711L397.372 34.375ZM394.505 42V44H395.89L396.377 42.7039L394.505 42ZM406.217 10.646L408.094 9.95459L406.263 4.98706L404.352 9.92382L406.217 10.646ZM399.934 26.872L398.069 26.1498L397.015 28.872H399.934V26.872ZM412.195 26.872V28.872H415.063L414.072 26.1806L412.195 26.872ZM386 42.7214L402.043 1.24145L398.313 -0.20145L382.27 41.2786L386 42.7214ZM400.178 2.52H412.195V-1.48H400.178V2.52ZM410.325 1.22947L426.063 42.7095L429.803 41.2905L414.065 -0.189475L410.325 1.22947ZM427.933 40H417.563V44H427.933V40ZM419.44 41.3093L416.634 33.6843L412.88 35.0657L415.686 42.6907L419.44 41.3093ZM414.757 32.375H397.372V36.375H414.757V32.375ZM395.5 33.6711L392.633 41.2961L396.377 42.7039L399.244 35.0789L395.5 33.6711ZM394.505 40H384.135V44H394.505V40ZM404.352 9.92382L398.069 26.1498L401.799 27.5942L408.082 11.3682L404.352 9.92382ZM399.934 28.872H412.195V24.872H399.934V28.872ZM414.072 26.1806L408.094 9.95459L404.34 11.3374L410.318 27.5634L414.072 26.1806ZM434.415 42H432.415V44H434.415V42ZM434.415 0.52V-1.48H432.415V0.52H434.415ZM461.865 1.862L462.585 -0.00384919L462.585 -0.00384997L461.865 1.862ZM467.66 6.376L466.045 7.55603L466.052 7.56606L466.06 7.576L467.66 6.376ZM466.989 22.358L465.509 21.0127L465.502 21.0201L465.495 21.0276L466.989 22.358ZM459.181 26.689L458.784 24.7288L455.132 25.4684L457.766 28.1032L459.181 26.689ZM459.974 27.421L461.329 25.9499L461.316 25.9379L461.302 25.9262L459.974 27.421ZM463.512 30.654L462.174 32.1406L462.213 32.1756L462.253 32.2085L463.512 30.654ZM466.745 32.728L465.806 34.4942L465.818 34.5002L465.829 34.5059L466.745 32.728ZM474.797 32.972L476.782 32.7313L476.46 30.0716L474.001 31.1369L474.797 32.972ZM475.773 41.024L476.667 42.8129L477.928 42.1825L477.758 40.7833L475.773 41.024ZM462.048 40.658L463.04 38.9215L463.04 38.9215L462.048 40.658ZM456.314 36.327L454.864 37.7045L454.872 37.7137L454.881 37.7227L456.314 36.327ZM451.19 31.02L449.745 32.4031L449.753 32.4111L449.76 32.4189L451.19 31.02ZM446.859 27.055L447.997 25.4106L447.483 25.055H446.859V27.055ZM444.663 27.055V25.055H442.663V27.055H444.663ZM444.663 42V44H446.663V42H444.663ZM444.663 9.426V7.426H442.663V9.426H444.663ZM444.663 19.674H442.663V21.674H444.663V19.674ZM457.9 18.271L456.546 16.7991L456.531 16.8129L456.516 16.827L457.9 18.271ZM457.9 10.829L456.516 12.273L456.547 12.3024L456.578 12.3304L457.9 10.829ZM436.415 42V0.52H432.415V42H436.415ZM434.415 2.52H454.118V-1.48H434.415V2.52ZM454.118 2.52C456.754 2.52 459.087 2.93379 461.145 3.72784L462.585 -0.00384997C460.006 -0.999122 457.175 -1.48 454.118 -1.48V2.52ZM461.145 3.72784C463.085 4.47677 464.713 5.73342 466.045 7.55603L469.274 5.19596C467.516 2.78924 465.28 1.03656 462.585 -0.00384919L461.145 3.72784ZM466.06 7.576C467.344 9.28829 468.039 11.4502 468.039 14.184H472.039C472.039 10.7365 471.147 7.69304 469.26 5.176L466.06 7.576ZM468.039 14.184C468.039 16.9333 467.185 19.1687 465.509 21.0127L468.469 23.7033C470.859 21.074 472.039 17.86 472.039 14.184H468.039ZM465.495 21.0276C463.818 22.9105 461.615 24.1554 458.784 24.7288L459.578 28.6492C463.172 27.9212 466.174 26.2788 468.482 23.6884L465.495 21.0276ZM457.766 28.1032C457.973 28.31 458.275 28.5866 458.645 28.9158L461.302 25.9262C460.941 25.6047 460.713 25.3934 460.595 25.2748L457.766 28.1032ZM458.619 28.8921C460.166 30.3168 461.352 31.4007 462.174 32.1406L464.85 29.1674C464.045 28.4433 462.872 27.3718 461.329 25.9499L458.619 28.8921ZM462.253 32.2085C463.234 33.0024 464.427 33.7617 465.806 34.4942L467.683 30.9618C466.459 30.3117 465.497 29.6882 464.77 29.0995L462.253 32.2085ZM465.829 34.5059C467.353 35.2914 468.891 35.765 470.405 35.765V31.765C469.722 31.765 468.82 31.5473 467.661 30.9501L465.829 34.5059ZM470.405 35.765C472.312 35.765 474.06 35.4708 475.592 34.8071L474.001 31.1369C473.093 31.5306 471.914 31.765 470.405 31.765V35.765ZM472.811 33.2127L473.787 41.2647L477.758 40.7833L476.782 32.7313L472.811 33.2127ZM474.878 39.2351C473.064 40.1422 471.036 40.61 468.758 40.61V44.61C471.604 44.61 474.252 44.0204 476.667 42.8129L474.878 39.2351ZM468.758 40.61C466.972 40.61 465.074 40.0838 463.04 38.9215L461.055 42.3945C463.576 43.8349 466.152 44.61 468.758 44.61V40.61ZM463.04 38.9215C460.896 37.6962 459.14 36.3618 457.746 34.9313L454.881 37.7227C456.578 39.4642 458.645 41.0172 461.055 42.3945L463.04 38.9215ZM457.764 34.9495C456.21 33.3144 454.495 31.5382 452.619 29.6211L449.76 32.4189C451.625 34.3245 453.326 36.0862 454.864 37.7045L457.764 34.9495ZM452.634 29.6369C450.787 27.7078 449.229 26.2633 447.997 25.4106L445.72 28.6994C446.603 29.3107 447.932 30.5096 449.745 32.4031L452.634 29.6369ZM446.859 25.055H444.663V29.055H446.859V25.055ZM442.663 27.055V42H446.663V27.055H442.663ZM444.663 40H434.415V44H444.663V40ZM453.935 7.426H444.663V11.426H453.935V7.426ZM442.663 9.426V19.674H446.663V9.426H442.663ZM444.663 21.674H453.935V17.674H444.663V21.674ZM453.935 21.674C455.991 21.674 457.853 21.0862 459.283 19.715L456.516 16.827C455.995 17.3265 455.213 17.674 453.935 17.674V21.674ZM459.254 19.7429C460.733 18.3817 461.425 16.5812 461.425 14.55H457.425C457.425 15.6095 457.099 16.2896 456.546 16.7991L459.254 19.7429ZM461.425 14.55C461.425 12.4976 460.744 10.6681 459.221 9.32757L456.578 12.3304C457.088 12.7793 457.425 13.4304 457.425 14.55H461.425ZM459.283 9.38502C457.853 8.0138 455.991 7.426 453.935 7.426V11.426C455.213 11.426 455.995 11.7735 456.516 12.273L459.283 9.38502ZM519.156 42H517.156V44H519.156V42ZM519.156 16.624H521.156V11.0999L517.62 15.3436L519.156 16.624ZM506.651 31.63V33.63H507.588L508.187 32.9104L506.651 31.63ZM504.882 31.63L503.343 32.9067L503.942 33.63H504.882V31.63ZM492.438 16.624L493.978 15.3473L490.438 11.0791V16.624H492.438ZM492.438 42V44H494.438V42H492.438ZM482.19 42H480.19V44H482.19V42ZM482.19 0.52V-1.48H480.19V0.52H482.19ZM491.035 0.52L492.557 -0.777164L491.958 -1.48H491.035V0.52ZM505.797 17.844L504.275 19.1412L505.797 20.9277L507.319 19.1412L505.797 17.844ZM520.559 0.52V-1.48H519.636L519.037 -0.777164L520.559 0.52ZM529.404 0.52H531.404V-1.48H529.404V0.52ZM529.404 42V44H531.404V42H529.404ZM521.156 42V16.624H517.156V42H521.156ZM517.62 15.3436L505.115 30.3496L508.187 32.9104L520.693 17.9044L517.62 15.3436ZM506.651 29.63H504.882V33.63H506.651V29.63ZM506.422 30.3533L493.978 15.3473L490.899 17.9007L503.343 32.9067L506.422 30.3533ZM490.438 16.624V42H494.438V16.624H490.438ZM492.438 40H482.19V44H492.438V40ZM484.19 42V0.52H480.19V42H484.19ZM482.19 2.52H491.035V-1.48H482.19V2.52ZM489.513 1.81716L504.275 19.1412L507.319 16.5468L492.557 -0.777164L489.513 1.81716ZM507.319 19.1412L522.081 1.81716L519.037 -0.777164L504.275 16.5468L507.319 19.1412ZM520.559 2.52H529.404V-1.48H520.559V2.52ZM527.404 0.52V42H531.404V0.52H527.404ZM529.404 40H519.156V44H529.404V40ZM551.543 41.207L549.779 40.2653L549.543 40.7067V41.207H551.543ZM573.259 0.52V-1.48H572.06L571.495 -0.421726L573.259 0.52ZM580.213 0.52H582.213V-1.48H580.213V0.52ZM580.213 1.252L581.979 2.19057L582.213 1.75043V1.252H580.213ZM558.558 42V44H559.76L560.324 42.9386L558.558 42ZM551.543 42H549.543V44H551.543V42ZM553.308 42.1487L575.024 1.46173L571.495 -0.421726L549.779 40.2653L553.308 42.1487ZM573.259 2.52H580.213V-1.48H573.259V2.52ZM578.213 0.52V1.252H582.213V0.52H578.213ZM578.447 0.313429L556.792 41.0614L560.324 42.9386L581.979 2.19057L578.447 0.313429ZM558.558 40H551.543V44H558.558V40ZM553.543 42V41.207H549.543V42H553.543ZM568.819 41.207L567.054 40.2653L566.819 40.7067V41.207H568.819ZM590.535 0.52V-1.48H589.335L588.77 -0.421726L590.535 0.52ZM597.489 0.52H599.489V-1.48H597.489V0.52ZM597.489 1.252L599.255 2.19057L599.489 1.75043V1.252H597.489ZM575.834 42V44H577.036L577.6 42.9386L575.834 42ZM568.819 42H566.819V44H568.819V42ZM570.583 42.1487L592.299 1.46173L588.77 -0.421726L567.054 40.2653L570.583 42.1487ZM590.535 2.52H597.489V-1.48H590.535V2.52ZM595.489 0.52V1.252H599.489V0.52H595.489ZM595.723 0.313429L574.068 41.0614L577.6 42.9386L599.255 2.19057L595.723 0.313429ZM575.834 40H568.819V44H575.834V40ZM570.819 42V41.207H566.819V42H570.819ZM648.411 28.458V30.458H650.411V28.458H648.411ZM629.379 28.458V26.458H627.379V28.458H629.379ZM629.379 42V44H631.379V42H629.379ZM619.619 42H617.619V44H619.619V42ZM619.619 0.52V-1.48H617.619V0.52H619.619ZM651.705 0.52H653.705V-1.48H651.705V0.52ZM651.705 9.487V11.487H653.705V9.487H651.705ZM629.379 9.487V7.487H627.379V9.487H629.379ZM629.379 19.491H627.379V21.491H629.379V19.491ZM648.411 19.491H650.411V17.491H648.411V19.491ZM648.411 26.458H629.379V30.458H648.411V26.458ZM627.379 28.458V42H631.379V28.458H627.379ZM629.379 40H619.619V44H629.379V40ZM621.619 42V0.52H617.619V42H621.619ZM619.619 2.52H651.705V-1.48H619.619V2.52ZM649.705 0.52V9.487H653.705V0.52H649.705ZM651.705 7.487H629.379V11.487H651.705V7.487ZM627.379 9.487V19.491H631.379V9.487H627.379ZM629.379 21.491H648.411V17.491H629.379V21.491ZM646.411 19.491V28.458H650.411V19.491H646.411ZM652.916 42L651.051 41.2786L649.998 44H652.916V42ZM668.959 0.52V-1.48H667.588L667.094 -0.20145L668.959 0.52ZM680.976 0.52L682.846 -0.189475L682.356 -1.48H680.976V0.52ZM696.714 42V44H699.612L698.584 41.2905L696.714 42ZM686.344 42L684.467 42.6907L684.949 44H686.344V42ZM683.538 34.375L685.415 33.6843L684.933 32.375H683.538V34.375ZM666.153 34.375V32.375H664.768L664.281 33.6711L666.153 34.375ZM663.286 42V44H664.671L665.158 42.7039L663.286 42ZM674.998 10.646L676.875 9.95459L675.045 4.98706L673.133 9.92382L674.998 10.646ZM668.715 26.872L666.85 26.1498L665.796 28.872H668.715V26.872ZM680.976 26.872V28.872H683.844L682.853 26.1806L680.976 26.872ZM654.782 42.7214L670.825 1.24145L667.094 -0.20145L651.051 41.2786L654.782 42.7214ZM668.959 2.52H680.976V-1.48H668.959V2.52ZM679.106 1.22947L694.844 42.7095L698.584 41.2905L682.846 -0.189475L679.106 1.22947ZM696.714 40H686.344V44H696.714V40ZM688.221 41.3093L685.415 33.6843L681.661 35.0657L684.467 42.6907L688.221 41.3093ZM683.538 32.375H666.153V36.375H683.538V32.375ZM664.281 33.6711L661.414 41.2961L665.158 42.7039L668.025 35.0789L664.281 33.6711ZM663.286 40H652.916V44H663.286V40ZM673.133 9.92382L666.85 26.1498L670.58 27.5942L676.863 11.3682L673.133 9.92382ZM668.715 28.872H680.976V24.872H668.715V28.872ZM682.853 26.1806L676.875 9.95459L673.122 11.3374L679.1 27.5634L682.853 26.1806ZM703.196 42H701.196V44H703.196V42ZM703.196 0.52V-1.48H701.196V0.52H703.196ZM730.646 1.862L731.366 -0.00384919L731.366 -0.00384997L730.646 1.862ZM736.441 6.376L734.826 7.55603L734.833 7.56606L734.841 7.576L736.441 6.376ZM735.77 22.358L734.29 21.0127L734.283 21.0201L734.277 21.0276L735.77 22.358ZM727.962 26.689L727.565 24.7288L723.913 25.4684L726.548 28.1032L727.962 26.689ZM728.755 27.421L730.11 25.9499L730.097 25.9379L730.084 25.9262L728.755 27.421ZM732.293 30.654L730.955 32.1406L730.994 32.1756L731.035 32.2085L732.293 30.654ZM735.526 32.728L734.588 34.4942L734.599 34.5002L734.61 34.5059L735.526 32.728ZM743.578 32.972L745.563 32.7313L745.241 30.0716L742.783 31.1369L743.578 32.972ZM744.554 41.024L745.448 42.8129L746.709 42.1825L746.539 40.7833L744.554 41.024ZM730.829 40.658L731.821 38.9215L731.821 38.9215L730.829 40.658ZM725.095 36.327L723.645 37.7045L723.654 37.7137L723.662 37.7227L725.095 36.327ZM719.971 31.02L718.526 32.4031L718.534 32.4111L718.542 32.4189L719.971 31.02ZM715.64 27.055L716.778 25.4106L716.265 25.055H715.64V27.055ZM713.444 27.055V25.055H711.444V27.055H713.444ZM713.444 42V44H715.444V42H713.444ZM713.444 9.426V7.426H711.444V9.426H713.444ZM713.444 19.674H711.444V21.674H713.444V19.674ZM726.681 18.271L725.327 16.7991L725.312 16.8129L725.297 16.827L726.681 18.271ZM726.681 10.829L725.297 12.273L725.328 12.3024L725.36 12.3304L726.681 10.829ZM705.196 42V0.52H701.196V42H705.196ZM703.196 2.52H722.899V-1.48H703.196V2.52ZM722.899 2.52C725.535 2.52 727.868 2.93379 729.926 3.72784L731.366 -0.00384997C728.787 -0.999122 725.956 -1.48 722.899 -1.48V2.52ZM729.926 3.72784C731.866 4.47677 733.494 5.73342 734.826 7.55603L738.056 5.19596C736.297 2.78924 734.062 1.03656 731.366 -0.00384919L729.926 3.72784ZM734.841 7.576C736.125 9.28829 736.82 11.4502 736.82 14.184H740.82C740.82 10.7365 739.929 7.69304 738.041 5.176L734.841 7.576ZM736.82 14.184C736.82 16.9333 735.966 19.1687 734.29 21.0127L737.25 23.7033C739.64 21.074 740.82 17.86 740.82 14.184H736.82ZM734.277 21.0276C732.599 22.9105 730.396 24.1554 727.565 24.7288L728.359 28.6492C731.953 27.9212 734.955 26.2788 737.263 23.6884L734.277 21.0276ZM726.548 28.1032C726.754 28.31 727.056 28.5866 727.426 28.9158L730.084 25.9262C729.722 25.6047 729.495 25.3934 729.376 25.2748L726.548 28.1032ZM727.4 28.8921C728.947 30.3168 730.133 31.4007 730.955 32.1406L733.631 29.1674C732.826 28.4433 731.654 27.3718 730.11 25.9499L727.4 28.8921ZM731.035 32.2085C732.015 33.0024 733.209 33.7617 734.588 34.4942L736.464 30.9618C735.24 30.3117 734.279 29.6882 733.551 29.0995L731.035 32.2085ZM734.61 34.5059C736.135 35.2914 737.673 35.765 739.186 35.765V31.765C738.503 31.765 737.601 31.5473 736.442 30.9501L734.61 34.5059ZM739.186 35.765C741.093 35.765 742.842 35.4708 744.373 34.8071L742.783 31.1369C741.874 31.5306 740.695 31.765 739.186 31.765V35.765ZM741.592 33.2127L742.568 41.2647L746.539 40.7833L745.563 32.7313L741.592 33.2127ZM743.659 39.2351C741.845 40.1422 739.817 40.61 737.539 40.61V44.61C740.385 44.61 743.033 44.0204 745.448 42.8129L743.659 39.2351ZM737.539 40.61C735.753 40.61 733.855 40.0838 731.821 38.9215L729.837 42.3945C732.357 43.8349 734.933 44.61 737.539 44.61V40.61ZM731.821 38.9215C729.677 37.6962 727.921 36.3618 726.527 34.9313L723.662 37.7227C725.359 39.4642 727.426 41.0172 729.837 42.3945L731.821 38.9215ZM726.545 34.9495C724.992 33.3144 723.277 31.5382 721.4 29.6211L718.542 32.4189C720.407 34.3245 722.108 36.0862 723.645 37.7045L726.545 34.9495ZM721.416 29.6369C719.569 27.7078 718.01 26.2633 716.778 25.4106L714.501 28.6994C715.385 29.3107 716.713 30.5096 718.526 32.4031L721.416 29.6369ZM715.64 25.055H713.444V29.055H715.64V25.055ZM711.444 27.055V42H715.444V27.055H711.444ZM713.444 40H703.196V44H713.444V40ZM722.716 7.426H713.444V11.426H722.716V7.426ZM711.444 9.426V19.674H715.444V9.426H711.444ZM713.444 21.674H722.716V17.674H713.444V21.674ZM722.716 21.674C724.772 21.674 726.634 21.0862 728.065 19.715L725.297 16.827C724.776 17.3265 723.994 17.674 722.716 17.674V21.674ZM728.035 19.7429C729.515 18.3817 730.206 16.5812 730.206 14.55H726.206C726.206 15.6095 725.881 16.2896 725.327 16.7991L728.035 19.7429ZM730.206 14.55C730.206 12.4976 729.525 10.6681 728.002 9.32757L725.36 12.3304C725.87 12.7793 726.206 13.4304 726.206 14.55H730.206ZM728.065 9.38502C726.634 8.0138 724.772 7.426 722.716 7.426V11.426C723.994 11.426 724.776 11.7735 725.297 12.273L728.065 9.38502ZM787.937 42H785.937V44H787.937V42ZM787.937 16.624H789.937V11.0999L786.401 15.3436L787.937 16.624ZM775.432 31.63V33.63H776.369L776.969 32.9104L775.432 31.63ZM773.663 31.63L772.124 32.9067L772.724 33.63H773.663V31.63ZM761.219 16.624L762.759 15.3473L759.219 11.0791V16.624H761.219ZM761.219 42V44H763.219V42H761.219ZM750.971 42H748.971V44H750.971V42ZM750.971 0.52V-1.48H748.971V0.52H750.971ZM759.816 0.52L761.339 -0.777164L760.74 -1.48H759.816V0.52ZM774.578 17.844L773.056 19.1412L774.578 20.9277L776.101 19.1412L774.578 17.844ZM789.34 0.52V-1.48H788.417L787.818 -0.777164L789.34 0.52ZM798.185 0.52H800.185V-1.48H798.185V0.52ZM798.185 42V44H800.185V42H798.185ZM789.937 42V16.624H785.937V42H789.937ZM786.401 15.3436L773.896 30.3496L776.969 32.9104L789.474 17.9044L786.401 15.3436ZM775.432 29.63H773.663V33.63H775.432V29.63ZM775.203 30.3533L762.759 15.3473L759.68 17.9007L772.124 32.9067L775.203 30.3533ZM759.219 16.624V42H763.219V16.624H759.219ZM761.219 40H750.971V44H761.219V40ZM752.971 42V0.52H748.971V42H752.971ZM750.971 2.52H759.816V-1.48H750.971V2.52ZM758.294 1.81716L773.056 19.1412L776.101 16.5468L761.339 -0.777164L758.294 1.81716ZM776.101 19.1412L790.863 1.81716L787.818 -0.777164L773.056 16.5468L776.101 19.1412ZM789.34 2.52H798.185V-1.48H789.34V2.52ZM796.185 0.52V42H800.185V0.52H796.185ZM798.185 40H787.937V44H798.185V40ZM820.324 41.207L818.56 40.2653L818.324 40.7067V41.207H820.324ZM842.04 0.52V-1.48H840.841L840.276 -0.421726L842.04 0.52ZM848.994 0.52H850.994V-1.48H848.994V0.52ZM848.994 1.252L850.761 2.19057L850.994 1.75043V1.252H848.994ZM827.339 42V44H828.542L829.106 42.9386L827.339 42ZM820.324 42H818.324V44H820.324V42ZM822.089 42.1487L843.805 1.46173L840.276 -0.421726L818.56 40.2653L822.089 42.1487ZM842.04 2.52H848.994V-1.48H842.04V2.52ZM846.994 0.52V1.252H850.994V0.52H846.994ZM847.228 0.313429L825.573 41.0614L829.106 42.9386L850.761 2.19057L847.228 0.313429ZM827.339 40H820.324V44H827.339V40ZM822.324 42V41.207H818.324V42H822.324ZM837.6 41.207L835.835 40.2653L835.6 40.7067V41.207H837.6ZM859.316 0.52V-1.48H858.116L857.551 -0.421726L859.316 0.52ZM866.27 0.52H868.27V-1.48H866.27V0.52ZM866.27 1.252L868.036 2.19057L868.27 1.75043V1.252H866.27ZM844.615 42V44H845.817L846.381 42.9386L844.615 42ZM837.6 42H835.6V44H837.6V42ZM839.364 42.1487L861.08 1.46173L857.551 -0.421726L835.835 40.2653L839.364 42.1487ZM859.316 2.52H866.27V-1.48H859.316V2.52ZM864.27 0.52V1.252H868.27V0.52H864.27ZM864.504 0.313429L842.849 41.0614L846.381 42.9386L868.036 2.19057L864.504 0.313429ZM844.615 40H837.6V44H844.615V40ZM839.6 42V41.207H835.6V42H839.6ZM917.192 28.458V30.458H919.192V28.458H917.192ZM898.16 28.458V26.458H896.16V28.458H898.16ZM898.16 42V44H900.16V42H898.16ZM888.4 42H886.4V44H888.4V42ZM888.4 0.52V-1.48H886.4V0.52H888.4ZM920.486 0.52H922.486V-1.48H920.486V0.52ZM920.486 9.487V11.487H922.486V9.487H920.486ZM898.16 9.487V7.487H896.16V9.487H898.16ZM898.16 19.491H896.16V21.491H898.16V19.491ZM917.192 19.491H919.192V17.491H917.192V19.491ZM917.192 26.458H898.16V30.458H917.192V26.458ZM896.16 28.458V42H900.16V28.458H896.16ZM898.16 40H888.4V44H898.16V40ZM890.4 42V0.52H886.4V42H890.4ZM888.4 2.52H920.486V-1.48H888.4V2.52ZM918.486 0.52V9.487H922.486V0.52H918.486ZM920.486 7.487H898.16V11.487H920.486V7.487ZM896.16 9.487V19.491H900.16V9.487H896.16ZM898.16 21.491H917.192V17.491H898.16V21.491ZM915.192 19.491V28.458H919.192V19.491H915.192ZM921.697 42L919.832 41.2786L918.78 44H921.697V42ZM937.74 0.52V-1.48H936.37L935.875 -0.20145L937.74 0.52ZM949.757 0.52L951.627 -0.189475L951.138 -1.48H949.757V0.52ZM965.495 42V44H968.393L967.365 41.2905L965.495 42ZM955.125 42L953.248 42.6907L953.73 44H955.125V42ZM952.319 34.375L954.196 33.6843L953.715 32.375H952.319V34.375ZM934.934 34.375V32.375H933.55L933.062 33.6711L934.934 34.375ZM932.067 42V44H933.452L933.939 42.7039L932.067 42ZM943.779 10.646L945.656 9.95459L943.826 4.98706L941.914 9.92382L943.779 10.646ZM937.496 26.872L935.631 26.1498L934.577 28.872H937.496V26.872ZM949.757 26.872V28.872H952.626L951.634 26.1806L949.757 26.872ZM923.563 42.7214L939.606 1.24145L935.875 -0.20145L919.832 41.2786L923.563 42.7214ZM937.74 2.52H949.757V-1.48H937.74V2.52ZM947.888 1.22947L963.626 42.7095L967.365 41.2905L951.627 -0.189475L947.888 1.22947ZM965.495 40H955.125V44H965.495V40ZM957.002 41.3093L954.196 33.6843L950.442 35.0657L953.248 42.6907L957.002 41.3093ZM952.319 32.375H934.934V36.375H952.319V32.375ZM933.062 33.6711L930.195 41.2961L933.939 42.7039L936.806 35.0789L933.062 33.6711ZM932.067 40H921.697V44H932.067V40ZM941.914 9.92382L935.631 26.1498L939.361 27.5942L945.644 11.3682L941.914 9.92382ZM937.496 28.872H949.757V24.872H937.496V28.872ZM951.634 26.1806L945.656 9.95459L941.903 11.3374L947.881 27.5634L951.634 26.1806ZM971.977 42H969.977V44H971.977V42ZM971.977 0.52V-1.48H969.977V0.52H971.977ZM999.427 1.862L1000.15 -0.00384919L1000.15 -0.00384997L999.427 1.862ZM1005.22 6.376L1003.61 7.55603L1003.61 7.56606L1003.62 7.576L1005.22 6.376ZM1004.55 22.358L1003.07 21.0127L1003.06 21.0201L1003.06 21.0276L1004.55 22.358ZM996.743 26.689L996.346 24.7288L992.694 25.4684L995.329 28.1032L996.743 26.689ZM997.536 27.421L998.891 25.9499L998.878 25.9379L998.865 25.9262L997.536 27.421ZM1001.07 30.654L999.736 32.1406L999.775 32.1756L999.816 32.2085L1001.07 30.654ZM1004.31 32.728L1003.37 34.4942L1003.38 34.5002L1003.39 34.5059L1004.31 32.728ZM1012.36 32.972L1014.34 32.7313L1014.02 30.0716L1011.56 31.1369L1012.36 32.972ZM1013.34 41.024L1014.23 42.8129L1015.49 42.1825L1015.32 40.7833L1013.34 41.024ZM999.61 40.658L1000.6 38.9215L1000.6 38.9215L999.61 40.658ZM993.876 36.327L992.426 37.7045L992.435 37.7137L992.444 37.7227L993.876 36.327ZM988.752 31.02L987.308 32.4031L987.315 32.4111L987.323 32.4189L988.752 31.02ZM984.421 27.055L985.56 25.4106L985.046 25.055H984.421V27.055ZM982.225 27.055V25.055H980.225V27.055H982.225ZM982.225 42V44H984.225V42H982.225ZM982.225 9.426V7.426H980.225V9.426H982.225ZM982.225 19.674H980.225V21.674H982.225V19.674ZM995.462 18.271L994.108 16.7991L994.093 16.8129L994.078 16.827L995.462 18.271ZM995.462 10.829L994.078 12.273L994.109 12.3024L994.141 12.3304L995.462 10.829ZM973.977 42V0.52H969.977V42H973.977ZM971.977 2.52H991.68V-1.48H971.977V2.52ZM991.68 2.52C994.316 2.52 996.65 2.93379 998.707 3.72784L1000.15 -0.00384997C997.569 -0.999122 994.738 -1.48 991.68 -1.48V2.52ZM998.707 3.72784C1000.65 4.47677 1002.28 5.73342 1003.61 7.55603L1006.84 5.19596C1005.08 2.78924 1002.84 1.03656 1000.15 -0.00384919L998.707 3.72784ZM1003.62 7.576C1004.91 9.28829 1005.6 11.4502 1005.6 14.184H1009.6C1009.6 10.7365 1008.71 7.69304 1006.82 5.176L1003.62 7.576ZM1005.6 14.184C1005.6 16.9333 1004.75 19.1687 1003.07 21.0127L1006.03 23.7033C1008.42 21.074 1009.6 17.86 1009.6 14.184H1005.6ZM1003.06 21.0276C1001.38 22.9105 999.177 24.1554 996.346 24.7288L997.14 28.6492C1000.73 27.9212 1003.74 26.2788 1006.04 23.6884L1003.06 21.0276ZM995.329 28.1032C995.536 28.31 995.837 28.5866 996.207 28.9158L998.865 25.9262C998.503 25.6047 998.276 25.3934 998.157 25.2748L995.329 28.1032ZM996.181 28.8921C997.728 30.3168 998.914 31.4007 999.736 32.1406L1002.41 29.1674C1001.61 28.4433 1000.43 27.3718 998.891 25.9499L996.181 28.8921ZM999.816 32.2085C1000.8 33.0024 1001.99 33.7617 1003.37 34.4942L1005.25 30.9618C1004.02 30.3117 1003.06 29.6882 1002.33 29.0995L999.816 32.2085ZM1003.39 34.5059C1004.92 35.2914 1006.45 35.765 1007.97 35.765V31.765C1007.28 31.765 1006.38 31.5473 1005.22 30.9501L1003.39 34.5059ZM1007.97 35.765C1009.87 35.765 1011.62 35.4708 1013.15 34.8071L1011.56 31.1369C1010.66 31.5306 1009.48 31.765 1007.97 31.765V35.765ZM1010.37 33.2127L1011.35 41.2647L1015.32 40.7833L1014.34 32.7313L1010.37 33.2127ZM1012.44 39.2351C1010.63 40.1422 1008.6 40.61 1006.32 40.61V44.61C1009.17 44.61 1011.81 44.0204 1014.23 42.8129L1012.44 39.2351ZM1006.32 40.61C1004.53 40.61 1002.64 40.0838 1000.6 38.9215L998.618 42.3945C1001.14 43.8349 1003.71 44.61 1006.32 44.61V40.61ZM1000.6 38.9215C998.458 37.6962 996.702 36.3618 995.309 34.9313L992.444 37.7227C994.141 39.4642 996.208 41.0172 998.618 42.3945L1000.6 38.9215ZM995.326 34.9495C993.773 33.3144 992.058 31.5382 990.182 29.6211L987.323 32.4189C989.188 34.3245 990.889 36.0862 992.426 37.7045L995.326 34.9495ZM990.197 29.6369C988.35 27.7078 986.791 26.2633 985.56 25.4106L983.283 28.6994C984.166 29.3107 985.495 30.5096 987.308 32.4031L990.197 29.6369ZM984.421 25.055H982.225V29.055H984.421V25.055ZM980.225 27.055V42H984.225V27.055H980.225ZM982.225 40H971.977V44H982.225V40ZM991.497 7.426H982.225V11.426H991.497V7.426ZM980.225 9.426V19.674H984.225V9.426H980.225ZM982.225 21.674H991.497V17.674H982.225V21.674ZM991.497 21.674C993.553 21.674 995.415 21.0862 996.846 19.715L994.078 16.827C993.557 17.3265 992.776 17.674 991.497 17.674V21.674ZM996.816 19.7429C998.296 18.3817 998.987 16.5812 998.987 14.55H994.987C994.987 15.6095 994.662 16.2896 994.108 16.7991L996.816 19.7429ZM998.987 14.55C998.987 12.4976 998.307 10.6681 996.783 9.32757L994.141 12.3304C994.651 12.7793 994.987 13.4304 994.987 14.55H998.987ZM996.846 9.38502C995.415 8.0138 993.553 7.426 991.497 7.426V11.426C992.776 11.426 993.557 11.7735 994.078 12.273L996.846 9.38502ZM1056.72 42H1054.72V44H1056.72V42ZM1056.72 16.624H1058.72V11.0999L1055.18 15.3436L1056.72 16.624ZM1044.21 31.63V33.63H1045.15L1045.75 32.9104L1044.21 31.63ZM1042.44 31.63L1040.91 32.9067L1041.5 33.63H1042.44V31.63ZM1030 16.624L1031.54 15.3473L1028 11.0791V16.624H1030ZM1030 42V44H1032V42H1030ZM1019.75 42H1017.75V44H1019.75V42ZM1019.75 0.52V-1.48H1017.75V0.52H1019.75ZM1028.6 0.52L1030.12 -0.777164L1029.52 -1.48H1028.6V0.52ZM1043.36 17.844L1041.84 19.1412L1043.36 20.9277L1044.88 19.1412L1043.36 17.844ZM1058.12 0.52V-1.48H1057.2L1056.6 -0.777164L1058.12 0.52ZM1066.97 0.52H1068.97V-1.48H1066.97V0.52ZM1066.97 42V44H1068.97V42H1066.97ZM1058.72 42V16.624H1054.72V42H1058.72ZM1055.18 15.3436L1042.68 30.3496L1045.75 32.9104L1058.26 17.9044L1055.18 15.3436ZM1044.21 29.63H1042.44V33.63H1044.21V29.63ZM1043.98 30.3533L1031.54 15.3473L1028.46 17.9007L1040.91 32.9067L1043.98 30.3533ZM1028 16.624V42H1032V16.624H1028ZM1030 40H1019.75V44H1030V40ZM1021.75 42V0.52H1017.75V42H1021.75ZM1019.75 2.52H1028.6V-1.48H1019.75V2.52ZM1027.08 1.81716L1041.84 19.1412L1044.88 16.5468L1030.12 -0.777164L1027.08 1.81716ZM1044.88 19.1412L1059.64 1.81716L1056.6 -0.777164L1041.84 16.5468L1044.88 19.1412ZM1058.12 2.52H1066.97V-1.48H1058.12V2.52ZM1064.97 0.52V42H1068.97V0.52H1064.97ZM1066.97 40H1056.72V44H1066.97V40ZM1089.11 41.207L1087.34 40.2653L1087.11 40.7067V41.207H1089.11ZM1110.82 0.52V-1.48H1109.62L1109.06 -0.421726L1110.82 0.52ZM1117.78 0.52H1119.78V-1.48H1117.78V0.52ZM1117.78 1.252L1119.54 2.19057L1119.78 1.75043V1.252H1117.78ZM1096.12 42V44H1097.32L1097.89 42.9386L1096.12 42ZM1089.11 42H1087.11V44H1089.11V42ZM1090.87 42.1487L1112.59 1.46173L1109.06 -0.421726L1087.34 40.2653L1090.87 42.1487ZM1110.82 2.52H1117.78V-1.48H1110.82V2.52ZM1115.78 0.52V1.252H1119.78V0.52H1115.78ZM1116.01 0.313429L1094.35 41.0614L1097.89 42.9386L1119.54 2.19057L1116.01 0.313429ZM1096.12 40H1089.11V44H1096.12V40ZM1091.11 42V41.207H1087.11V42H1091.11ZM1106.38 41.207L1104.62 40.2653L1104.38 40.7067V41.207H1106.38ZM1128.1 0.52V-1.48H1126.9L1126.33 -0.421726L1128.1 0.52ZM1135.05 0.52H1137.05V-1.48H1135.05V0.52ZM1135.05 1.252L1136.82 2.19057L1137.05 1.75043V1.252H1135.05ZM1113.4 42V44H1114.6L1115.16 42.9386L1113.4 42ZM1106.38 42H1104.38V44H1106.38V42ZM1108.15 42.1487L1129.86 1.46173L1126.33 -0.421726L1104.62 40.2653L1108.15 42.1487ZM1128.1 2.52H1135.05V-1.48H1128.1V2.52ZM1133.05 0.52V1.252H1137.05V0.52H1133.05ZM1133.29 0.313429L1111.63 41.0614L1115.16 42.9386L1136.82 2.19057L1133.29 0.313429ZM1113.4 40H1106.38V44H1113.4V40ZM1108.38 42V41.207H1104.38V42H1108.38ZM1185.97 28.458V30.458H1187.97V28.458H1185.97ZM1166.94 28.458V26.458H1164.94V28.458H1166.94ZM1166.94 42V44H1168.94V42H1166.94ZM1157.18 42H1155.18V44H1157.18V42ZM1157.18 0.52V-1.48H1155.18V0.52H1157.18ZM1189.27 0.52H1191.27V-1.48H1189.27V0.52ZM1189.27 9.487V11.487H1191.27V9.487H1189.27ZM1166.94 9.487V7.487H1164.94V9.487H1166.94ZM1166.94 19.491H1164.94V21.491H1166.94V19.491ZM1185.97 19.491H1187.97V17.491H1185.97V19.491ZM1185.97 26.458H1166.94V30.458H1185.97V26.458ZM1164.94 28.458V42H1168.94V28.458H1164.94ZM1166.94 40H1157.18V44H1166.94V40ZM1159.18 42V0.52H1155.18V42H1159.18ZM1157.18 2.52H1189.27V-1.48H1157.18V2.52ZM1187.27 0.52V9.487H1191.27V0.52H1187.27ZM1189.27 7.487H1166.94V11.487H1189.27V7.487ZM1164.94 9.487V19.491H1168.94V9.487H1164.94ZM1166.94 21.491H1185.97V17.491H1166.94V21.491ZM1183.97 19.491V28.458H1187.97V19.491H1183.97ZM1190.48 42L1188.61 41.2786L1187.56 44H1190.48V42ZM1206.52 0.52V-1.48H1205.15L1204.66 -0.20145L1206.52 0.52ZM1218.54 0.52L1220.41 -0.189475L1219.92 -1.48H1218.54V0.52ZM1234.28 42V44H1237.17L1236.15 41.2905L1234.28 42ZM1223.91 42L1222.03 42.6907L1222.51 44H1223.91V42ZM1221.1 34.375L1222.98 33.6843L1222.5 32.375H1221.1V34.375ZM1203.72 34.375V32.375H1202.33L1201.84 33.6711L1203.72 34.375ZM1200.85 42V44H1202.23L1202.72 42.7039L1200.85 42ZM1212.56 10.646L1214.44 9.95459L1212.61 4.98706L1210.7 9.92382L1212.56 10.646ZM1206.28 26.872L1204.41 26.1498L1203.36 28.872H1206.28V26.872ZM1218.54 26.872V28.872H1221.41L1220.42 26.1806L1218.54 26.872ZM1192.34 42.7214L1208.39 1.24145L1204.66 -0.20145L1188.61 41.2786L1192.34 42.7214ZM1206.52 2.52H1218.54V-1.48H1206.52V2.52ZM1216.67 1.22947L1232.41 42.7095L1236.15 41.2905L1220.41 -0.189475L1216.67 1.22947ZM1234.28 40H1223.91V44H1234.28V40ZM1225.78 41.3093L1222.98 33.6843L1219.22 35.0657L1222.03 42.6907L1225.78 41.3093ZM1221.1 32.375H1203.72V36.375H1221.1V32.375ZM1201.84 33.6711L1198.98 41.2961L1202.72 42.7039L1205.59 35.0789L1201.84 33.6711ZM1200.85 40H1190.48V44H1200.85V40ZM1210.7 9.92382L1204.41 26.1498L1208.14 27.5942L1214.43 11.3682L1210.7 9.92382ZM1206.28 28.872H1218.54V24.872H1206.28V28.872ZM1220.42 26.1806L1214.44 9.95459L1210.68 11.3374L1216.66 27.5634L1220.42 26.1806ZM1240.76 42H1238.76V44H1240.76V42ZM1240.76 0.52V-1.48H1238.76V0.52H1240.76ZM1268.21 1.862L1268.93 -0.00384919L1268.93 -0.00384997L1268.21 1.862ZM1274 6.376L1272.39 7.55603L1272.4 7.56606L1272.4 7.576L1274 6.376ZM1273.33 22.358L1271.85 21.0127L1271.85 21.0201L1271.84 21.0276L1273.33 22.358ZM1265.52 26.689L1265.13 24.7288L1261.48 25.4684L1264.11 28.1032L1265.52 26.689ZM1266.32 27.421L1267.67 25.9499L1267.66 25.9379L1267.65 25.9262L1266.32 27.421ZM1269.86 30.654L1268.52 32.1406L1268.56 32.1756L1268.6 32.2085L1269.86 30.654ZM1273.09 32.728L1272.15 34.4942L1272.16 34.5002L1272.17 34.5059L1273.09 32.728ZM1281.14 32.972L1283.13 32.7313L1282.8 30.0716L1280.35 31.1369L1281.14 32.972ZM1282.12 41.024L1283.01 42.8129L1284.27 42.1825L1284.1 40.7833L1282.12 41.024ZM1268.39 40.658L1269.38 38.9215L1269.38 38.9215L1268.39 40.658ZM1262.66 36.327L1261.21 37.7045L1261.22 37.7137L1261.22 37.7227L1262.66 36.327ZM1257.53 31.02L1256.09 32.4031L1256.1 32.4111L1256.1 32.4189L1257.53 31.02ZM1253.2 27.055L1254.34 25.4106L1253.83 25.055H1253.2V27.055ZM1251.01 27.055V25.055H1249.01V27.055H1251.01ZM1251.01 42V44H1253.01V42H1251.01ZM1251.01 9.426V7.426H1249.01V9.426H1251.01ZM1251.01 19.674H1249.01V21.674H1251.01V19.674ZM1264.24 18.271L1262.89 16.7991L1262.87 16.8129L1262.86 16.827L1264.24 18.271ZM1264.24 10.829L1262.86 12.273L1262.89 12.3024L1262.92 12.3304L1264.24 10.829ZM1242.76 42V0.52H1238.76V42H1242.76ZM1240.76 2.52H1260.46V-1.48H1240.76V2.52ZM1260.46 2.52C1263.1 2.52 1265.43 2.93379 1267.49 3.72784L1268.93 -0.00384997C1266.35 -0.999122 1263.52 -1.48 1260.46 -1.48V2.52ZM1267.49 3.72784C1269.43 4.47677 1271.06 5.73342 1272.39 7.55603L1275.62 5.19596C1273.86 2.78924 1271.62 1.03656 1268.93 -0.00384919L1267.49 3.72784ZM1272.4 7.576C1273.69 9.28829 1274.38 11.4502 1274.38 14.184H1278.38C1278.38 10.7365 1277.49 7.69304 1275.6 5.176L1272.4 7.576ZM1274.38 14.184C1274.38 16.9333 1273.53 19.1687 1271.85 21.0127L1274.81 23.7033C1277.2 21.074 1278.38 17.86 1278.38 14.184H1274.38ZM1271.84 21.0276C1270.16 22.9105 1267.96 24.1554 1265.13 24.7288L1265.92 28.6492C1269.52 27.9212 1272.52 26.2788 1274.83 23.6884L1271.84 21.0276ZM1264.11 28.1032C1264.32 28.31 1264.62 28.5866 1264.99 28.9158L1267.65 25.9262C1267.28 25.6047 1267.06 25.3934 1266.94 25.2748L1264.11 28.1032ZM1264.96 28.8921C1266.51 30.3168 1267.7 31.4007 1268.52 32.1406L1271.19 29.1674C1270.39 28.4433 1269.22 27.3718 1267.67 25.9499L1264.96 28.8921ZM1268.6 32.2085C1269.58 33.0024 1270.77 33.7617 1272.15 34.4942L1274.03 30.9618C1272.8 30.3117 1271.84 29.6882 1271.11 29.0995L1268.6 32.2085ZM1272.17 34.5059C1273.7 35.2914 1275.24 35.765 1276.75 35.765V31.765C1276.07 31.765 1275.16 31.5473 1274 30.9501L1272.17 34.5059ZM1276.75 35.765C1278.66 35.765 1280.4 35.4708 1281.94 34.8071L1280.35 31.1369C1279.44 31.5306 1278.26 31.765 1276.75 31.765V35.765ZM1279.15 33.2127L1280.13 41.2647L1284.1 40.7833L1283.13 32.7313L1279.15 33.2127ZM1281.22 39.2351C1279.41 40.1422 1277.38 40.61 1275.1 40.61V44.61C1277.95 44.61 1280.6 44.0204 1283.01 42.8129L1281.22 39.2351ZM1275.1 40.61C1273.32 40.61 1271.42 40.0838 1269.38 38.9215L1267.4 42.3945C1269.92 43.8349 1272.5 44.61 1275.1 44.61V40.61ZM1269.38 38.9215C1267.24 37.6962 1265.48 36.3618 1264.09 34.9313L1261.22 37.7227C1262.92 39.4642 1264.99 41.0172 1267.4 42.3945L1269.38 38.9215ZM1264.11 34.9495C1262.55 33.3144 1260.84 31.5382 1258.96 29.6211L1256.1 32.4189C1257.97 34.3245 1259.67 36.0862 1261.21 37.7045L1264.11 34.9495ZM1258.98 29.6369C1257.13 27.7078 1255.57 26.2633 1254.34 25.4106L1252.06 28.6994C1252.95 29.3107 1254.28 30.5096 1256.09 32.4031L1258.98 29.6369ZM1253.2 25.055H1251.01V29.055H1253.2V25.055ZM1249.01 27.055V42H1253.01V27.055H1249.01ZM1251.01 40H1240.76V44H1251.01V40ZM1260.28 7.426H1251.01V11.426H1260.28V7.426ZM1249.01 9.426V19.674H1253.01V9.426H1249.01ZM1251.01 21.674H1260.28V17.674H1251.01V21.674ZM1260.28 21.674C1262.33 21.674 1264.2 21.0862 1265.63 19.715L1262.86 16.827C1262.34 17.3265 1261.56 17.674 1260.28 17.674V21.674ZM1265.6 19.7429C1267.08 18.3817 1267.77 16.5812 1267.77 14.55H1263.77C1263.77 15.6095 1263.44 16.2896 1262.89 16.7991L1265.6 19.7429ZM1267.77 14.55C1267.77 12.4976 1267.09 10.6681 1265.56 9.32757L1262.92 12.3304C1263.43 12.7793 1263.77 13.4304 1263.77 14.55H1267.77ZM1265.63 9.38502C1264.2 8.0138 1262.33 7.426 1260.28 7.426V11.426C1261.56 11.426 1262.34 11.7735 1262.86 12.273L1265.63 9.38502ZM1325.5 42H1323.5V44H1325.5V42ZM1325.5 16.624H1327.5V11.0999L1323.96 15.3436L1325.5 16.624ZM1312.99 31.63V33.63H1313.93L1314.53 32.9104L1312.99 31.63ZM1311.23 31.63L1309.69 32.9067L1310.29 33.63H1311.23V31.63ZM1298.78 16.624L1300.32 15.3473L1296.78 11.0791V16.624H1298.78ZM1298.78 42V44H1300.78V42H1298.78ZM1288.53 42H1286.53V44H1288.53V42ZM1288.53 0.52V-1.48H1286.53V0.52H1288.53ZM1297.38 0.52L1298.9 -0.777164L1298.3 -1.48H1297.38V0.52ZM1312.14 17.844L1310.62 19.1412L1312.14 20.9277L1313.66 19.1412L1312.14 17.844ZM1326.9 0.52V-1.48H1325.98L1325.38 -0.777164L1326.9 0.52ZM1335.75 0.52H1337.75V-1.48H1335.75V0.52ZM1335.75 42V44H1337.75V42H1335.75ZM1327.5 42V16.624H1323.5V42H1327.5ZM1323.96 15.3436L1311.46 30.3496L1314.53 32.9104L1327.04 17.9044L1323.96 15.3436ZM1312.99 29.63H1311.23V33.63H1312.99V29.63ZM1312.77 30.3533L1300.32 15.3473L1297.24 17.9007L1309.69 32.9067L1312.77 30.3533ZM1296.78 16.624V42H1300.78V16.624H1296.78ZM1298.78 40H1288.53V44H1298.78V40ZM1290.53 42V0.52H1286.53V42H1290.53ZM1288.53 2.52H1297.38V-1.48H1288.53V2.52ZM1295.86 1.81716L1310.62 19.1412L1313.66 16.5468L1298.9 -0.777164L1295.86 1.81716ZM1313.66 19.1412L1328.43 1.81716L1325.38 -0.777164L1310.62 16.5468L1313.66 19.1412ZM1326.9 2.52H1335.75V-1.48H1326.9V2.52ZM1333.75 0.52V42H1337.75V0.52H1333.75ZM1335.75 40H1325.5V44H1335.75V40ZM1357.89 41.207L1356.12 40.2653L1355.89 40.7067V41.207H1357.89ZM1379.6 0.52V-1.48H1378.4L1377.84 -0.421726L1379.6 0.52ZM1386.56 0.52H1388.56V-1.48H1386.56V0.52ZM1386.56 1.252L1388.32 2.19057L1388.56 1.75043V1.252H1386.56ZM1364.9 42V44H1366.1L1366.67 42.9386L1364.9 42ZM1357.89 42H1355.89V44H1357.89V42ZM1359.65 42.1487L1381.37 1.46173L1377.84 -0.421726L1356.12 40.2653L1359.65 42.1487ZM1379.6 2.52H1386.56V-1.48H1379.6V2.52ZM1384.56 0.52V1.252H1388.56V0.52H1384.56ZM1384.79 0.313429L1363.14 41.0614L1366.67 42.9386L1388.32 2.19057L1384.79 0.313429ZM1364.9 40H1357.89V44H1364.9V40ZM1359.89 42V41.207H1355.89V42H1359.89ZM1375.16 41.207L1373.4 40.2653L1373.16 40.7067V41.207H1375.16ZM1396.88 0.52V-1.48H1395.68L1395.11 -0.421726L1396.88 0.52ZM1403.83 0.52H1405.83V-1.48H1403.83V0.52ZM1403.83 1.252L1405.6 2.19057L1405.83 1.75043V1.252H1403.83ZM1382.18 42V44H1383.38L1383.94 42.9386L1382.18 42ZM1375.16 42H1373.16V44H1375.16V42ZM1376.93 42.1487L1398.64 1.46173L1395.11 -0.421726L1373.4 40.2653L1376.93 42.1487ZM1396.88 2.52H1403.83V-1.48H1396.88V2.52ZM1401.83 0.52V1.252H1405.83V0.52H1401.83ZM1402.07 0.313429L1380.41 41.0614L1383.94 42.9386L1405.6 2.19057L1402.07 0.313429ZM1382.18 40H1375.16V44H1382.18V40ZM1377.16 42V41.207H1373.16V42H1377.16ZM1454.75 28.458V30.458H1456.75V28.458H1454.75ZM1435.72 28.458V26.458H1433.72V28.458H1435.72ZM1435.72 42V44H1437.72V42H1435.72ZM1425.96 42H1423.96V44H1425.96V42ZM1425.96 0.52V-1.48H1423.96V0.52H1425.96ZM1458.05 0.52H1460.05V-1.48H1458.05V0.52ZM1458.05 9.487V11.487H1460.05V9.487H1458.05ZM1435.72 9.487V7.487H1433.72V9.487H1435.72ZM1435.72 19.491H1433.72V21.491H1435.72V19.491ZM1454.75 19.491H1456.75V17.491H1454.75V19.491ZM1454.75 26.458H1435.72V30.458H1454.75V26.458ZM1433.72 28.458V42H1437.72V28.458H1433.72ZM1435.72 40H1425.96V44H1435.72V40ZM1427.96 42V0.52H1423.96V42H1427.96ZM1425.96 2.52H1458.05V-1.48H1425.96V2.52ZM1456.05 0.52V9.487H1460.05V0.52H1456.05ZM1458.05 7.487H1435.72V11.487H1458.05V7.487ZM1433.72 9.487V19.491H1437.72V9.487H1433.72ZM1435.72 21.491H1454.75V17.491H1435.72V21.491ZM1452.75 19.491V28.458H1456.75V19.491H1452.75ZM1459.26 42L1457.39 41.2786L1456.34 44H1459.26V42ZM1475.3 0.52V-1.48H1473.93L1473.44 -0.20145L1475.3 0.52ZM1487.32 0.52L1489.19 -0.189475L1488.7 -1.48H1487.32V0.52ZM1503.06 42V44H1505.96L1504.93 41.2905L1503.06 42ZM1492.69 42L1490.81 42.6907L1491.29 44H1492.69V42ZM1489.88 34.375L1491.76 33.6843L1491.28 32.375H1489.88V34.375ZM1472.5 34.375V32.375H1471.11L1470.62 33.6711L1472.5 34.375ZM1469.63 42V44H1471.01L1471.5 42.7039L1469.63 42ZM1481.34 10.646L1483.22 9.95459L1481.39 4.98706L1479.48 9.92382L1481.34 10.646ZM1475.06 26.872L1473.19 26.1498L1472.14 28.872H1475.06V26.872ZM1487.32 26.872V28.872H1490.19L1489.2 26.1806L1487.32 26.872ZM1461.13 42.7214L1477.17 1.24145L1473.44 -0.20145L1457.39 41.2786L1461.13 42.7214ZM1475.3 2.52H1487.32V-1.48H1475.3V2.52ZM1485.45 1.22947L1501.19 42.7095L1504.93 41.2905L1489.19 -0.189475L1485.45 1.22947ZM1503.06 40H1492.69V44H1503.06V40ZM1494.56 41.3093L1491.76 33.6843L1488 35.0657L1490.81 42.6907L1494.56 41.3093ZM1489.88 32.375H1472.5V36.375H1489.88V32.375ZM1470.62 33.6711L1467.76 41.2961L1471.5 42.7039L1474.37 35.0789L1470.62 33.6711ZM1469.63 40H1459.26V44H1469.63V40ZM1479.48 9.92382L1473.19 26.1498L1476.92 27.5942L1483.21 11.3682L1479.48 9.92382ZM1475.06 28.872H1487.32V24.872H1475.06V28.872ZM1489.2 26.1806L1483.22 9.95459L1479.47 11.3374L1485.44 27.5634L1489.2 26.1806ZM1509.54 42H1507.54V44H1509.54V42ZM1509.54 0.52V-1.48H1507.54V0.52H1509.54ZM1536.99 1.862L1537.71 -0.00384919L1537.71 -0.00384997L1536.99 1.862ZM1542.78 6.376L1541.17 7.55603L1541.18 7.56606L1541.18 7.576L1542.78 6.376ZM1542.11 22.358L1540.63 21.0127L1540.63 21.0201L1540.62 21.0276L1542.11 22.358ZM1534.31 26.689L1533.91 24.7288L1530.26 25.4684L1532.89 28.1032L1534.31 26.689ZM1535.1 27.421L1536.45 25.9499L1536.44 25.9379L1536.43 25.9262L1535.1 27.421ZM1538.64 30.654L1537.3 32.1406L1537.34 32.1756L1537.38 32.2085L1538.64 30.654ZM1541.87 32.728L1540.93 34.4942L1540.94 34.5002L1540.95 34.5059L1541.87 32.728ZM1549.92 32.972L1551.91 32.7313L1551.58 30.0716L1549.13 31.1369L1549.92 32.972ZM1550.9 41.024L1551.79 42.8129L1553.05 42.1825L1552.88 40.7833L1550.9 41.024ZM1537.17 40.658L1538.16 38.9215L1538.16 38.9215L1537.17 40.658ZM1531.44 36.327L1529.99 37.7045L1530 37.7137L1530.01 37.7227L1531.44 36.327ZM1526.31 31.02L1524.87 32.4031L1524.88 32.4111L1524.89 32.4189L1526.31 31.02ZM1521.98 27.055L1523.12 25.4106L1522.61 25.055H1521.98V27.055ZM1519.79 27.055V25.055H1517.79V27.055H1519.79ZM1519.79 42V44H1521.79V42H1519.79ZM1519.79 9.426V7.426H1517.79V9.426H1519.79ZM1519.79 19.674H1517.79V21.674H1519.79V19.674ZM1533.02 18.271L1531.67 16.7991L1531.66 16.8129L1531.64 16.827L1533.02 18.271ZM1533.02 10.829L1531.64 12.273L1531.67 12.3024L1531.7 12.3304L1533.02 10.829ZM1511.54 42V0.52H1507.54V42H1511.54ZM1509.54 2.52H1529.24V-1.48H1509.54V2.52ZM1529.24 2.52C1531.88 2.52 1534.21 2.93379 1536.27 3.72784L1537.71 -0.00384997C1535.13 -0.999122 1532.3 -1.48 1529.24 -1.48V2.52ZM1536.27 3.72784C1538.21 4.47677 1539.84 5.73342 1541.17 7.55603L1544.4 5.19596C1542.64 2.78924 1540.41 1.03656 1537.71 -0.00384919L1536.27 3.72784ZM1541.18 7.576C1542.47 9.28829 1543.16 11.4502 1543.16 14.184H1547.16C1547.16 10.7365 1546.27 7.69304 1544.38 5.176L1541.18 7.576ZM1543.16 14.184C1543.16 16.9333 1542.31 19.1687 1540.63 21.0127L1543.59 23.7033C1545.98 21.074 1547.16 17.86 1547.16 14.184H1543.16ZM1540.62 21.0276C1538.94 22.9105 1536.74 24.1554 1533.91 24.7288L1534.7 28.6492C1538.3 27.9212 1541.3 26.2788 1543.61 23.6884L1540.62 21.0276ZM1532.89 28.1032C1533.1 28.31 1533.4 28.5866 1533.77 28.9158L1536.43 25.9262C1536.07 25.6047 1535.84 25.3934 1535.72 25.2748L1532.89 28.1032ZM1533.74 28.8921C1535.29 30.3168 1536.48 31.4007 1537.3 32.1406L1539.97 29.1674C1539.17 28.4433 1538 27.3718 1536.45 25.9499L1533.74 28.8921ZM1537.38 32.2085C1538.36 33.0024 1539.55 33.7617 1540.93 34.4942L1542.81 30.9618C1541.58 30.3117 1540.62 29.6882 1539.9 29.0995L1537.38 32.2085ZM1540.95 34.5059C1542.48 35.2914 1544.02 35.765 1545.53 35.765V31.765C1544.85 31.765 1543.94 31.5473 1542.79 30.9501L1540.95 34.5059ZM1545.53 35.765C1547.44 35.765 1549.19 35.4708 1550.72 34.8071L1549.13 31.1369C1548.22 31.5306 1547.04 31.765 1545.53 31.765V35.765ZM1547.94 33.2127L1548.91 41.2647L1552.88 40.7833L1551.91 32.7313L1547.94 33.2127ZM1550 39.2351C1548.19 40.1422 1546.16 40.61 1543.88 40.61V44.61C1546.73 44.61 1549.38 44.0204 1551.79 42.8129L1550 39.2351ZM1543.88 40.61C1542.1 40.61 1540.2 40.0838 1538.16 38.9215L1536.18 42.3945C1538.7 43.8349 1541.28 44.61 1543.88 44.61V40.61ZM1538.16 38.9215C1536.02 37.6962 1534.26 36.3618 1532.87 34.9313L1530.01 37.7227C1531.7 39.4642 1533.77 41.0172 1536.18 42.3945L1538.16 38.9215ZM1532.89 34.9495C1531.34 33.3144 1529.62 31.5382 1527.74 29.6211L1524.89 32.4189C1526.75 34.3245 1528.45 36.0862 1529.99 37.7045L1532.89 34.9495ZM1527.76 29.6369C1525.91 27.7078 1524.35 26.2633 1523.12 25.4106L1520.85 28.6994C1521.73 29.3107 1523.06 30.5096 1524.87 32.4031L1527.76 29.6369ZM1521.98 25.055H1519.79V29.055H1521.98V25.055ZM1517.79 27.055V42H1521.79V27.055H1517.79ZM1519.79 40H1509.54V44H1519.79V40ZM1529.06 7.426H1519.79V11.426H1529.06V7.426ZM1517.79 9.426V19.674H1521.79V9.426H1517.79ZM1519.79 21.674H1529.06V17.674H1519.79V21.674ZM1529.06 21.674C1531.12 21.674 1532.98 21.0862 1534.41 19.715L1531.64 16.827C1531.12 17.3265 1530.34 17.674 1529.06 17.674V21.674ZM1534.38 19.7429C1535.86 18.3817 1536.55 16.5812 1536.55 14.55H1532.55C1532.55 15.6095 1532.22 16.2896 1531.67 16.7991L1534.38 19.7429ZM1536.55 14.55C1536.55 12.4976 1535.87 10.6681 1534.35 9.32757L1531.7 12.3304C1532.21 12.7793 1532.55 13.4304 1532.55 14.55H1536.55ZM1534.41 9.38502C1532.98 8.0138 1531.12 7.426 1529.06 7.426V11.426C1530.34 11.426 1531.12 11.7735 1531.64 12.273L1534.41 9.38502ZM1594.28 42H1592.28V44H1594.28V42ZM1594.28 16.624H1596.28V11.0999L1592.74 15.3436L1594.28 16.624ZM1581.78 31.63V33.63H1582.71L1583.31 32.9104L1581.78 31.63ZM1580.01 31.63L1578.47 32.9067L1579.07 33.63H1580.01V31.63ZM1567.56 16.624L1569.1 15.3473L1565.56 11.0791V16.624H1567.56ZM1567.56 42V44H1569.56V42H1567.56ZM1557.32 42H1555.32V44H1557.32V42ZM1557.32 0.52V-1.48H1555.32V0.52H1557.32ZM1566.16 0.52L1567.68 -0.777164L1567.08 -1.48H1566.16V0.52ZM1580.92 17.844L1579.4 19.1412L1580.92 20.9277L1582.44 19.1412L1580.92 17.844ZM1595.68 0.52V-1.48H1594.76L1594.16 -0.777164L1595.68 0.52ZM1604.53 0.52H1606.53V-1.48H1604.53V0.52ZM1604.53 42V44H1606.53V42H1604.53ZM1596.28 42V16.624H1592.28V42H1596.28ZM1592.74 15.3436L1580.24 30.3496L1583.31 32.9104L1595.82 17.9044L1592.74 15.3436ZM1581.78 29.63H1580.01V33.63H1581.78V29.63ZM1581.55 30.3533L1569.1 15.3473L1566.02 17.9007L1578.47 32.9067L1581.55 30.3533ZM1565.56 16.624V42H1569.56V16.624H1565.56ZM1567.56 40H1557.32V44H1567.56V40ZM1559.32 42V0.52H1555.32V42H1559.32ZM1557.32 2.52H1566.16V-1.48H1557.32V2.52ZM1564.64 1.81716L1579.4 19.1412L1582.44 16.5468L1567.68 -0.777164L1564.64 1.81716ZM1582.44 19.1412L1597.21 1.81716L1594.16 -0.777164L1579.4 16.5468L1582.44 19.1412ZM1595.68 2.52H1604.53V-1.48H1595.68V2.52ZM1602.53 0.52V42H1606.53V0.52H1602.53ZM1604.53 40H1594.28V44H1604.53V40ZM1626.67 41.207L1624.9 40.2653L1624.67 40.7067V41.207H1626.67ZM1648.38 0.52V-1.48H1647.18L1646.62 -0.421726L1648.38 0.52ZM1655.34 0.52H1657.34V-1.48H1655.34V0.52ZM1655.34 1.252L1657.1 2.19057L1657.34 1.75043V1.252H1655.34ZM1633.68 42V44H1634.89L1635.45 42.9386L1633.68 42ZM1626.67 42H1624.67V44H1626.67V42ZM1628.43 42.1487L1650.15 1.46173L1646.62 -0.421726L1624.9 40.2653L1628.43 42.1487ZM1648.38 2.52H1655.34V-1.48H1648.38V2.52ZM1653.34 0.52V1.252H1657.34V0.52H1653.34ZM1653.57 0.313429L1631.92 41.0614L1635.45 42.9386L1657.1 2.19057L1653.57 0.313429ZM1633.68 40H1626.67V44H1633.68V40ZM1628.67 42V41.207H1624.67V42H1628.67ZM1643.94 41.207L1642.18 40.2653L1641.94 40.7067V41.207H1643.94ZM1665.66 0.52V-1.48H1664.46L1663.9 -0.421726L1665.66 0.52ZM1672.61 0.52H1674.61V-1.48H1672.61V0.52ZM1672.61 1.252L1674.38 2.19057L1674.61 1.75043V1.252H1672.61ZM1650.96 42V44H1652.16L1652.72 42.9386L1650.96 42ZM1643.94 42H1641.94V44H1643.94V42ZM1645.71 42.1487L1667.42 1.46173L1663.9 -0.421726L1642.18 40.2653L1645.71 42.1487ZM1665.66 2.52H1672.61V-1.48H1665.66V2.52ZM1670.61 0.52V1.252H1674.61V0.52H1670.61ZM1670.85 0.313429L1649.19 41.0614L1652.72 42.9386L1674.38 2.19057L1670.85 0.313429ZM1650.96 40H1643.94V44H1650.96V40ZM1645.94 42V41.207H1641.94V42H1645.94Z" fill="#A64AC9"/>
</svg>
