<svg width="160" height="145" viewBox="0 0 160 145" fill="none" xmlns="http://www.w3.org/2000/svg">
<path d="M39.9 42V18.288L28.215 32.31H26.562L14.934 18.288V42H5.358V3.24H13.623L27.417 19.428L41.211 3.24H49.476V42H39.9ZM0.513 92L15.504 53.24H26.733L41.439 92H31.749L29.127 84.875H12.882L10.203 92H0.513ZM21.147 62.702L15.276 77.864H26.733L21.147 62.702ZM5.358 142V103.24H14.934V142H5.358Z" fill="#58FFE1"/>
<path d="M5.358 142V103.24H14.934V142H5.358ZM54.7467 142L35.1957 118.459V142H25.6197V103.24H33.9417L53.4357 126.781V103.24H63.0117V142H54.7467ZM100.617 129.346H82.8335V142H73.7135V103.24H103.695V111.619H82.8335V120.967H100.617V129.346ZM108.838 122.677C108.838 116.939 110.738 112.17 114.538 108.37C118.338 104.57 123.069 102.67 128.731 102.67C134.469 102.67 139.238 104.57 143.038 108.37C146.838 112.17 148.738 116.939 148.738 122.677C148.738 128.339 146.838 133.07 143.038 136.87C139.238 140.67 134.469 142.57 128.731 142.57C123.069 142.57 118.338 140.67 114.538 136.87C110.738 133.07 108.838 128.339 108.838 122.677ZM118.243 122.677C118.243 125.755 119.231 128.339 121.207 130.429C123.221 132.519 125.748 133.564 128.788 133.564C131.904 133.564 134.431 132.538 136.369 130.486C138.345 128.396 139.333 125.793 139.333 122.677C139.333 119.523 138.345 116.92 136.369 114.868C134.431 112.778 131.904 111.733 128.788 111.733C125.748 111.733 123.221 112.778 121.207 114.868C119.231 116.92 118.243 119.523 118.243 122.677Z" fill="#58FFE1"/>
</svg>
