<svg width="231" height="48" viewBox="0 0 231 48" fill="none" xmlns="http://www.w3.org/2000/svg">
<path d="M10.7991 24.0623L5.56449 29.2924L0.334351 24.0623L5.56449 18.8322L10.7991 24.0623ZM23.4899 11.3625L32.4526 20.3297L37.6828 15.0996L23.4899 0.906738L9.29707 15.0996L14.5272 20.3297L23.4899 11.3625ZM41.4199 18.8322L36.1897 24.0623L41.4199 29.2924L46.6455 24.0623L41.4199 18.8322ZM23.4899 36.7621L14.5272 27.7994L9.29707 33.025L23.4899 47.2179L37.6828 33.025L32.4526 27.7994L23.4899 36.7621ZM23.4899 29.2924L28.7201 24.0623L23.4899 18.8322L18.2598 24.0623L23.4899 29.2924ZM78.6869 29.7946V29.7223C78.6869 26.3109 76.8771 24.6052 73.9318 23.4832C75.7415 22.4652 77.2707 20.8681 77.2707 18.0042V17.9318C77.2707 13.9414 74.0766 11.3625 68.8871 11.3625H57.1058V36.7621H69.1857C74.9181 36.7621 78.6959 34.4411 78.6959 29.7946H78.6869ZM71.7194 18.9362C71.7194 20.8229 70.1585 21.6237 67.6927 21.6237H62.5485V16.2623H68.0637C70.4209 16.2623 71.7284 17.2034 71.7284 18.8729L71.7194 18.9362ZM73.1355 29.0979C73.1355 30.9845 71.647 31.8532 69.1767 31.8532H62.5485V26.2747H69.0048C71.8732 26.2747 73.1445 27.3289 73.1445 29.0346L73.1355 29.0979ZM90.4275 36.7621V11.3625H84.8219V36.7621H90.4275ZM120.465 36.7621V11.3625H114.931V27.0031L103.032 11.3625H97.8791V36.7621H103.394V20.6148L115.691 36.7621H120.465ZM151.416 36.7621L140.512 11.1815H135.359L124.478 36.7621H130.174L132.504 31.066H143.245L145.566 36.7621H151.416ZM141.258 26.1299H134.49L137.865 17.8956L141.258 26.1299ZM178.05 36.7621V11.3625H172.517V27.0031L160.614 11.3625H155.465V36.7621H160.976V20.6148L173.277 36.7621H178.05ZM206.893 32.6631L203.341 29.0707C201.346 30.8805 199.568 32.0432 196.664 32.0432C192.311 32.0432 189.298 28.4238 189.298 24.0623V23.9899C189.298 19.6375 192.383 16.0814 196.664 16.0814C199.202 16.0814 201.188 17.1672 203.16 18.9453L206.703 14.8462C204.346 12.5252 201.482 10.9281 196.691 10.9281C188.891 10.9281 183.448 16.8415 183.448 24.0487V24.1211C183.448 31.4144 188.999 37.1829 196.474 37.1829C201.364 37.1965 204.264 35.4546 206.875 32.6631H206.893ZM230.736 36.7621V31.7854H216.928V26.4421H228.904V21.4653H216.928V16.3347H230.537V11.358H211.377V36.7576L230.736 36.7621Z" fill="#A64AC9"/>
</svg>
