<svg width="232" height="48" viewBox="0 0 232 48" fill="none" xmlns="http://www.w3.org/2000/svg">
<path d="M11.2611 24.0623L6.02646 29.2924L0.796326 24.0623L6.02646 18.8322L11.2611 24.0623ZM23.9519 11.3625L32.9146 20.3297L38.1447 15.0996L23.9519 0.906738L9.75904 15.0996L14.9892 20.3297L23.9519 11.3625ZM41.8818 18.8322L36.6517 24.0623L41.8818 29.2924L47.1075 24.0623L41.8818 18.8322ZM23.9519 36.7621L14.9892 27.7994L9.75904 33.025L23.9519 47.2179L38.1447 33.025L32.9146 27.7994L23.9519 36.7621ZM23.9519 29.2924L29.182 24.0623L23.9519 18.8322L18.7218 24.0623L23.9519 29.2924ZM79.1488 29.7946V29.7223C79.1488 26.3109 77.3391 24.6052 74.3938 23.4832C76.2035 22.4652 77.7327 20.8681 77.7327 18.0042V17.9318C77.7327 13.9414 74.5385 11.3625 69.3491 11.3625H57.5677V36.7621H69.6477C75.3801 36.7621 79.1579 34.4411 79.1579 29.7946H79.1488ZM72.1814 18.9362C72.1814 20.8229 70.6205 21.6237 68.1547 21.6237H63.0105V16.2623H68.5257C70.8829 16.2623 72.1904 17.2034 72.1904 18.8729L72.1814 18.9362ZM73.5975 29.0979C73.5975 30.9845 72.109 31.8532 69.6387 31.8532H63.0105V26.2747H69.4667C72.3352 26.2747 73.6065 27.3289 73.6065 29.0346L73.5975 29.0979ZM90.8895 36.7621V11.3625H85.2838V36.7621H90.8895ZM120.927 36.7621V11.3625H115.393V27.0031L103.494 11.3625H98.3411V36.7621H103.856V20.6148L116.153 36.7621H120.927ZM151.878 36.7621L140.974 11.1815H135.821L124.94 36.7621H130.636L132.966 31.066H143.707L146.028 36.7621H151.878ZM141.72 26.1299H134.952L138.327 17.8956L141.72 26.1299ZM178.512 36.7621V11.3625H172.979V27.0031L161.076 11.3625H155.927V36.7621H161.438V20.6148L173.739 36.7621H178.512ZM207.355 32.6631L203.803 29.0707C201.808 30.8805 200.03 32.0432 197.126 32.0432C192.773 32.0432 189.76 28.4238 189.76 24.0623V23.9899C189.76 19.6375 192.845 16.0814 197.126 16.0814C199.664 16.0814 201.65 17.1672 203.622 18.9453L207.165 14.8462C204.808 12.5252 201.944 10.9281 197.153 10.9281C189.353 10.9281 183.91 16.8415 183.91 24.0487V24.1211C183.91 31.4144 189.461 37.1829 196.935 37.1829C201.826 37.1965 204.726 35.4546 207.337 32.6631H207.355ZM231.198 36.7621V31.7854H217.39V26.4421H229.366V21.4653H217.39V16.3347H230.999V11.358H211.839V36.7576L231.198 36.7621Z" fill="#58FFE1"/>
</svg>
